/* XPM */
static char *result[] = {
/* columns rows colors chars-per-pixel */
"50 50 127 2 ",
"   c black",
".  c #130200",
"X  c #1F0801",
"o  c #260300",
"O  c #2D0200",
"+  c #240902",
"@  c #2D0C04",
"#  c #340200",
"$  c #330B02",
"%  c #3B0C03",
"&  c #2F140A",
"*  c #361106",
"=  c #3B150A",
"-  c #291B15",
";  c #271C18",
":  c #311D16",
">  c #2B231F",
",  c #3F241B",
"<  c #2C2320",
"1  c #2B2F2C",
"2  c #32312B",
"3  c #2F3735",
"4  c #343430",
"5  c #3E3932",
"6  c #450000",
"7  c #4B0300",
"8  c #440E02",
"9  c #4C0F03",
"0  c #530200",
"q  c #550B00",
"w  c #4C1103",
"e  c #521102",
"r  c #5A1C0D",
"t  c #640000",
"y  c #680000",
"u  c #620D00",
"i  c #7A0000",
"p  c #651200",
"a  c #6B1300",
"s  c #741601",
"d  c #7D1700",
"f  c #7D1800",
"g  c #61210E",
"h  c #6E2413",
"j  c #433A33",
"k  c #403F39",
"l  c #3A443F",
"z  c #46453F",
"x  c #3E4642",
"c  c #3E4843",
"v  c #464742",
"b  c #454A43",
"n  c #494A44",
"m  c #434D4A",
"M  c #524D45",
"N  c #46514C",
"B  c #4B504C",
"V  c #4E5B56",
"C  c #565B54",
"Z  c #5A5A52",
"A  c #605C54",
"S  c #58615C",
"D  c #5D6560",
"F  c #656C63",
"G  c #686D64",
"H  c #6B746C",
"J  c #7A7F75",
"K  c #870000",
"L  c #8A0000",
"P  c #9B0900",
"I  c #871E02",
"U  c #8A1C00",
"Y  c #971700",
"T  c #991200",
"R  c #931E01",
"E  c #AE1400",
"W  c #A31C00",
"Q  c #B31F00",
"!  c #842B15",
"~  c #AB2200",
"^  c #B32300",
"/  c #BC2500",
"(  c #A7351B",
")  c #AB371B",
"_  c #BA3311",
"`  c #B93C1C",
"'  c #C11A00",
"]  c #C52700",
"[  c #D62C00",
"{  c #DD2E01",
"}  c #C23611",
"|  c #C33D1D",
" . c #D33C14",
".. c #EB2F00",
"X. c #E63101",
"o. c #EB3204",
"O. c #F33404",
"+. c #FC3503",
"@. c #FF3905",
"#. c #CA411F",
"$. c #DE4119",
"%. c #EE471E",
"&. c #F1471D",
"*. c #F0481D",
"=. c #D74421",
"-. c #E74721",
";. c #F74D23",
":. c #FD4F24",
">. c #FF5225",
",. c #FF5628",
"<. c #FF592A",
"1. c #817D72",
"2. c #7C8279",
"3. c #7F887F",
"4. c #878F84",
"5. c #8E8E82",
"6. c #8C9287",
"7. c #929286",
"8. c #92988D",
"9. c #A79D8E",
"0. c #ADAA9A",
"q. c #B7AC9B",
"w. c #D7C9B6",
"e. c #DDCEBA",
"r. c #E3D4C0",
"t. c #E6DAC5",
"y. c None",
/* pixels */
"y.y.y.y.y.y.y.y.y.y.y.y.y.y.y.y.y.y.y.y.y.y.y.y.y.y.y.y.y.y.y.y.y.y.y.y.y.y.y.y.y.y.y.y.y.y.y.y.y.y.",
"y.y.y.y.y.y.y.y.y.y.y.y.y.y.y.y.y.y.y.y.y.y.y.y.y.y.y.y.y.y.y.y.y.y.y.y.y.y.y.y.y.y.y.y.y.y.y.y.y.y.",
"y.y.y.y.y.y.y.y.y.y.y.y.y.y.y.y.y.y.y.y.y.y.y.y.y.y.y.y.y.y.y.y.y.y.y.y.y.y.y.y.y.y.y.y.y.y.y.y.y.y.",
"y.y.y.y.y.y.y.y.y.y.y.y.y.y.y.y.y.y.y.y.y.y.y.y.y.y.y.y.y.y.y.y.y.y.y.y.y.y.y.y.y.y.y.y.y.y.y.y.y.y.",
"y.y.y.y.y.y.y.y.y.y.y.y.y.y.y.y.y.y.y.y.y.y.y.y.y.y.y.y.y.y.y.y.y.y.y.y.y.y.y.y.y.y.y.y.y.y.y.y.y.y.",
"y.y.y.y.y.y.y.y.y.y.y.y.y.y.y.y.y.y.y.y.y.y.y.y.y.y.y.y.y.y.y.y.y.y.y.y.y.y.y.y.y.y.y.y.y.y.y.y.y.y.",
"y.y.y.y.y.y.y.y.y.y.y.y.y.y.y.y.y.y.y.y.y.y.y.y.y.y.y.y.y.y.y.y.y.y.y.y.y.y.y.y.y.y.y.y.y.y.y.y.y.y.",
"y.y.y.y.y.y.y.y.y.y.y.y.y.y.y.y.y.y.y.y.y.y.y.y.y.y.y.y.y.y.y.y.y.y.y.y.y.y.y.y.y.y.y.y.y.y.y.y.y.y.",
"y.y.y.y.y.y.y.y.y.y.y.y.y.y.y.y.y.y.y.y.y.y.y.y.y.y.y.y.y.y.y.y.y.y.y.y.y.y.y.y.y.y.y.y.y.y.y.y.y.y.",
"y.y.y.y.y.y.y.y.y.y.y.y.y.y.y.y.y.y.y.y.y.y.y.y.y.y.y.y.y.y.y.y.y.y.y.y.y.y.y.y.y.y.y.y.y.y.y.y.y.y.",
"y.y.y.y.y.y.y.y.y.y.y.y.y.y.y.y.y.y.y.y.y.y.y.y.y.y.y.y.y.y.y.y.y.y.y.y.y.y.y.y.y.y.y.y.y.y.y.y.y.y.",
"y.y.y.y.y.y.y.y.y.y.y.y.y.y.y.y.y.y.y.y.y.y.y.y.y.y.y.y.y.y.y.y.y.y.y.y.y.y.y.y.y.y.y.y.y.y.y.y.y.y.",
"y.y.y.y.y.y.y.y.y.y.y.y.y.y.y.y.y.y.y.y.y.y.y.y.2.V H y.y.y.y.y.y.y.y.y.y.y.y.y.y.y.y.y.y.y.y.y.y.y.",
"y.y.y.y.y.y.y.y.y.y.y.y.y.y.y.y.y.y.y.y.y.y.4.n 8 7 8 j y.y.y.y.y.y.y.y.y.y.y.y.y.y.y.y.y.y.y.y.y.y.",
"y.y.y.y.y.y.y.y.y.y.y.y.y.y.y.y.y.y.y.y.4.n & p #.>.*.I % j H y.y.y.y.y.y.y.y.y.y.y.y.y.y.y.y.y.y.y.",
"y.y.y.y.y.y.y.y.y.y.y.y.y.y.y.y.y.y.8.B @ p  .>.>.>.>.>.%.I $ 5 2.y.y.y.y.y.y.y.y.y.y.y.y.y.y.y.y.y.",
"y.y.y.y.y.y.y.y.y.y.y.y.y.y.y.y.y.S - q  .>.>.>.:.:.:.>.>.>.&.f @ v 3.y.y.y.y.y.y.y.y.y.y.y.y.y.y.y.",
"y.y.y.y.y.y.y.y.y.y.y.y.y.y.y.F > 7 _ >.>.>.>.:.:.:.:.:.:.:.>.>.$.a @ v y.y.y.y.y.y.y.y.y.y.y.y.y.y.",
"y.y.y.y.y.y.y.y.y.y.y.y.y.A , u } &.>.>.>.;.:.:.:.:.:.:.:.:.>.>.:.>. .I % M y.y.y.y.y.y.y.y.y.y.y.y.",
"y.y.y.y.y.y.y.y.y.y.y.y.y.  + | <.<.>.:.:.:.:.:.:.:.:.:.:.:.:.:.,.,.<.-.r   k y.y.y.y.y.y.y.y.y.y.y.",
"y.y.y.y.y.y.y.y.y.y.y.y.y.. # @ h | >.<.>.:.>.;.:.:.:.:.:.>.>.,.,.=.! * 9 O n y.y.y.y.y.y.y.y.y.y.y.",
"y.y.y.y.y.y.y.y.y.y.y.y.y.% Q s + + h ` ;.>.>.>.:.:.:.:.:.>.>.#.! * @ s O.L c y.y.y.y.y.y.y.y.y.y.y.",
"y.y.y.y.y.y.y.y.y.y.y.y.y.# Q / ~ a + + r ) ;.<.>.:.:.,.,.| h $ $ s [ +.@.i c y.y.y.y.y.y.y.y.y.y.y.",
"y.y.y.y.y.y.y.y.y.y.y.y.y.O Q ^ ^ ^ Q s $ X r ) ;.<.,.` h $ % I { +.O.O.+.i c y.y.y.y.y.y.y.y.y.y.y.",
"y.y.y.y.y.y.y.y.y.y.y.y.y.O Q ~ ~ ~ ~ ^ ^ f @ X g ( ! $ % R X.+.O.o.o.o.+.i c y.y.y.y.y.y.y.y.y.y.y.",
"y.y.y.y.y.y.y.y.y.y.y.y.6.o Q ~ ~ ~ ~ ~ ~ ^ ~ f %   . R X.+.O.o.o.o.o.o.+.i c y.y.y.y.y.y.y.y.y.y.y.",
"y.y.y.y.y.y.y.y.y.y.y.t.H O Q ~ ~ ~ ~ ~ ~ ~ ~ ^ / 8 8 +.+.o.o.o.o.o.o.o.@.i c y.y.y.y.y.y.y.y.y.y.y.",
"y.y.y.y.y.y.y.y.y.y.w.9.c # Q ~ ~ ~ ~ ~ ~ ~ ~ ~ ] e 8 +.O.o.o.o.o.o.o.o.+.i c y.y.y.y.y.y.y.y.y.y.y.",
"y.y.y.y.y.y.y.y.y.y.r.q.x O Q ^ ~ ~ ~ ~ ~ ~ ~ ~ / e 8 +.o.o.o.o.o.o.o.o.+.i c y.y.y.y.y.y.y.y.y.y.y.",
"y.y.y.y.y.y.y.y.y.y.y.e.m O ^ ~ ~ ~ ~ ~ ~ ~ ~ ~ / e 8 O.O.o.o.o.o.o.o.o.@.i c y.y.y.y.y.y.y.y.y.y.y.",
"y.y.y.y.y.y.y.y.y.y.y.y.F O ^ ^ ~ ~ ~ ~ ~ ~ ~ ~ ] e 8 +.o.o.o.o.o.o.o.o.@.K c y.y.y.y.y.y.y.y.y.y.y.",
"y.y.y.y.y.y.y.y.y.y.y.y.J   Y / ~ ~ ~ ~ ~ ~ ~ ~ / w 8 +.O.o.o.o.o.o.O.+.+.6 3 y.y.y.y.y.y.y.y.y.y.y.",
"y.y.y.y.y.y.y.y.y.y.y.y.y.2 O 0 Y / ^ ~ ~ ~ ~ ~ / e 8 +.O.o.o.o.O.@...P 0 ; 1.y.y.y.y.y.y.y.y.y.y.y.",
"y.y.y.y.y.y.y.y.y.y.y.y.y.y.G 1 O 0 Y / ^ ~ ~ ~ / e 8 +.o.o.O.+.o.P 0 - N y.y.y.y.y.y.y.y.y.y.y.y.y.",
"y.y.y.y.y.y.y.y.y.y.y.y.y.y.y.y.G 1 O t W / ~ ~ / e 8 O.O.@.O.E 0 ; N 0.y.y.y.y.y.y.y.y.y.y.y.y.y.y.",
"y.y.y.y.y.y.y.y.y.y.y.y.y.y.y.y.y.y.F > # t W / ] w w @.+.E t & b 0.y.y.y.y.y.y.y.y.y.y.y.y.y.y.y.y.",
"y.y.y.y.y.y.y.y.y.y.y.y.y.y.y.y.y.y.y.y.C < # y / p 8 Q y * x 5.y.y.y.y.y.y.y.y.y.y.y.y.y.y.y.y.y.y.",
"y.y.y.y.y.y.y.y.y.y.y.y.y.y.y.y.y.y.y.y.y.y.C > 7 o   = v 7.y.y.y.y.y.y.y.y.y.y.y.y.y.y.y.y.y.y.y.y.",
"y.y.y.y.y.y.y.y.y.y.y.y.y.y.y.y.y.y.y.y.y.y.y.y.C 4 z 5.y.y.y.y.y.y.y.y.y.y.y.y.y.y.y.y.y.y.y.y.y.y.",
"y.y.y.y.y.y.y.y.y.y.y.y.y.y.y.y.y.y.y.y.y.y.y.y.y.y.y.y.y.y.y.y.y.y.y.y.y.y.y.y.y.y.y.y.y.y.y.y.y.y.",
"y.y.y.y.y.y.y.y.y.y.y.y.y.y.y.y.y.y.y.y.y.y.y.y.y.y.y.y.y.y.y.y.y.y.y.y.y.y.y.y.y.y.y.y.y.y.y.y.y.y.",
"y.y.y.y.y.y.y.y.y.y.y.y.y.y.y.y.y.y.y.y.y.y.y.y.y.y.y.y.y.y.y.y.y.y.y.y.y.y.y.y.y.y.y.y.y.y.y.y.y.y.",
"y.y.y.y.y.y.y.y.y.y.y.y.y.y.y.y.y.y.y.y.y.y.y.y.y.y.y.y.y.y.y.y.y.y.y.y.y.y.y.y.y.y.y.y.y.y.y.y.y.y.",
"y.y.y.y.y.y.y.y.y.y.y.y.y.y.y.y.y.y.y.y.y.y.y.y.y.y.y.y.y.y.y.y.y.y.y.y.y.y.y.y.y.y.y.y.y.y.y.y.y.y.",
"y.y.y.y.y.y.y.y.y.y.y.y.y.y.y.y.y.y.y.y.y.y.y.y.y.y.y.y.y.y.y.y.y.y.y.y.y.y.y.y.y.y.y.y.y.y.y.y.y.y.",
"y.y.y.y.y.y.y.y.y.y.y.y.y.y.y.y.y.y.y.y.y.y.y.y.y.y.y.y.y.y.y.y.y.y.y.y.y.y.y.y.y.y.y.y.y.y.y.y.y.y.",
"y.y.y.y.y.y.y.y.y.y.y.y.y.y.y.y.y.y.y.y.y.y.y.y.y.y.y.y.y.y.y.y.y.y.y.y.y.y.y.y.y.y.y.y.y.y.y.y.y.y.",
"y.y.y.y.y.y.y.y.y.y.y.y.y.y.y.y.y.y.y.y.y.y.y.y.y.y.y.y.y.y.y.y.y.y.y.y.y.y.y.y.y.y.y.y.y.y.y.y.y.y.",
"y.y.y.y.y.y.y.y.y.y.y.y.y.y.y.y.y.y.y.y.y.y.y.y.y.y.y.y.y.y.y.y.y.y.y.y.y.y.y.y.y.y.y.y.y.y.y.y.y.y.",
"y.y.y.y.y.y.y.y.y.y.y.y.y.y.y.y.y.y.y.y.y.y.y.y.y.y.y.y.y.y.y.y.y.y.y.y.y.y.y.y.y.y.y.y.y.y.y.y.y.y."
};
