/* XPM */
static char *_99306e398c4435cf721226a13fcb978QkfY0izzBs3thR2H[] = {
/* columns rows colors chars-per-pixel */
"50 50 191 2 ",
"   c None",
".  c #010101",
"X  c #080603",
"o  c #0C0B07",
"O  c #0D0D0C",
"+  c #06090C",
"@  c #110F0E",
"#  c #11110F",
"$  c #0F0F10",
"%  c #0F1013",
"&  c #141313",
"*  c #1A1714",
"=  c #1A1917",
"-  c #17191A",
";  c #1B1B1C",
":  c #171718",
">  c #201F1C",
",  c #21211F",
"<  c #2C261E",
"1  c #1B1F24",
"2  c #171C23",
"3  c #1E2125",
"4  c #1B2028",
"5  c #1C2430",
"6  c #252424",
"7  c #2D2A25",
"8  c #22262B",
"9  c #26292D",
"0  c #2C2C2C",
"q  c #282422",
"w  c #322E2A",
"e  c #35322E",
"r  c #38342E",
"t  c #2A2E34",
"y  c #2F3033",
"u  c #2D323A",
"i  c #353535",
"p  c #3A3730",
"a  c #32363E",
"s  c #3A3A3A",
"d  c #3C3935",
"f  c #423D35",
"g  c #403E3B",
"h  c #454039",
"j  c #4A453E",
"k  c #4D483F",
"l  c #3C3E42",
"z  c #393E49",
"x  c #343A42",
"c  c #3D434C",
"v  c #3D4652",
"b  c #434344",
"n  c #4D4741",
"m  c #47484A",
"M  c #4C4C4C",
"N  c #454646",
"B  c #524D44",
"V  c #5B554C",
"C  c #5A554C",
"Z  c #414750",
"A  c #434A54",
"S  c #4A4E54",
"D  c #464F5A",
"F  c #545453",
"G  c #5A5453",
"H  c #5F5851",
"J  c #5C5B5B",
"K  c #4B535D",
"L  c #635D53",
"P  c #625D5B",
"I  c #6B655B",
"U  c #66615B",
"Y  c #70695F",
"T  c #4F5763",
"R  c #4F5865",
"E  c #535E6C",
"W  c #505964",
"Q  c #57616E",
"!  c #58626F",
"~  c #5C6674",
"^  c #5E6876",
"/  c #5F6A79",
"(  c #596676",
")  c #636363",
"_  c #6A6462",
"`  c #6B6B6B",
"'  c #676868",
"]  c #756D62",
"[  c #706F6E",
"{  c #797268",
"}  c #636E7B",
"|  c #656B75",
" . c #66717F",
".. c #6D747E",
"X. c #727272",
"o. c #70757D",
"O. c #7C7C7C",
"+. c #797878",
"@. c #80776B",
"#. c #837B6F",
"$. c #847D71",
"%. c #8A8175",
"&. c #8F8578",
"*. c #90867A",
"=. c #948B7E",
"-. c #667181",
";. c #697483",
":. c #6C7789",
">. c #757A81",
",. c #7C7E82",
"<. c #727C8C",
"1. c #727780",
"2. c #7D8189",
"3. c #7E8083",
"4. c #758191",
"5. c #788494",
"6. c #7B899A",
"7. c #7A8798",
"8. c #7F8DA1",
"9. c #838384",
"0. c #8B8583",
"q. c #888887",
"w. c #8A8A89",
"e. c #878888",
"r. c #978D80",
"t. c #988E82",
"y. c #9B9182",
"u. c #8F9194",
"i. c #939392",
"p. c #9B9B9C",
"a. c #A09687",
"s. c #A29989",
"d. c #A99E8E",
"f. c #A29887",
"g. c #A49F9D",
"h. c #A89F9E",
"j. c #AAA196",
"k. c #B6AB9B",
"l. c #B3A897",
"z. c #BCB09F",
"x. c #818FA2",
"c. c #8592A3",
"v. c #8D9BAD",
"b. c #8897AA",
"n. c #919CAC",
"m. c #9BAABE",
"M. c #97A5B7",
"N. c #A1A1A2",
"B. c #AEAEAE",
"V. c #BFB3A2",
"C. c #B3B4B5",
"Z. c #BABABA",
"A. c #B3B7BB",
"S. c #A4A9B0",
"D. c #C2B6A5",
"F. c #C9BDAB",
"G. c #CFC1AF",
"H. c #D0C2AF",
"J. c #CFC3B0",
"K. c #D9CBB7",
"L. c #E1D2BE",
"P. c #A5B5C9",
"I. c #BABDC2",
"U. c #AFC1D9",
"Y. c #B5C6DD",
"T. c #BACBE3",
"R. c #BBCEEA",
"E. c #BED1E9",
"W. c #C2C2C3",
"Q. c #C9CAC9",
"!. c #DBDADA",
"~. c #C8CED7",
"^. c #E5D7C3",
"/. c #C2D4EC",
"(. c #C6D8EE",
"). c #C6D9F2",
"_. c #CADDF5",
"`. c #CBDFF9",
"'. c #D1DFF5",
"]. c #CEE1FA",
"[. c #D1E5FE",
"{. c #D7E3F5",
"}. c #DCF2FF",
"|. c #ECECEC",
" X c #F1F0ED",
".X c #E6F4FD",
"XX c #F4F5F5",
"oX c white",
"OX c #FEFEFE",
"+X c #FEFEFF",
"@X c #F9F8F5",
/* pixels */
"                                            d.#.I L P P P P P P J _ 0.h.                            ",
"                                          &.h i i w 0 0 0 0 t 0 0 i y P h.                          ",
"                                        z.H X , i i i i i i i i i i o 6 0.                          ",
"                                        d.f O 9 s i i i i i i i i d : : _                           ",
"                                        f.e O 9 i i i i i i i i i s : & F                           ",
"                                        f.e O 7 s i i i i i i i i s : : G                           ",
"                                        f.i o 9 s i i i i i i i i s : &                             ",
"                                        f.p O 9 s i i i i i i i i s : :                             ",
"                                        a.e O 0 s i i i i i i s i s - : G                           ",
"                                        f.i O 0 s i s i s i s i s s - : _                           ",
"                                        y.w X ; 7 6 6 6 6 6 6 6 6 6 O : ]                           ",
"                                      D.I $ . % & & & & & & & & & : X X B k.                        ",
"                                  K.t.h X . . O & @ & O O % & % & & + . X j 0.                      ",
"                                  d.I M F m O X O O O & - % o O O O . ; s h U t.                    ",
"                              D.&.7 F |.OX|.6 . ; : ; a Z y 1 : ; : . ` XX!.w.w U                   ",
"                              =.V & m !.OX|.9 8 Z z D E } ^ T c c c + 3.OXOXw.X * n _               ",
"                            %.N.W.W.9.w.OX|.y v } ( ^ ^ ^ | ^ ( ^ ^ 1 9.OXQ.M o.e.9.6 s             ",
"                          k.P W.OXOXN.) OX|.i v -./ ^ ~ ^ ( ^ ^ } } 1 9.OXA.F |.OX@Xs @             ",
"                          l.k F.OXOXN.) OX|.9 c } ( ~ ~ ~ ~ ~ ~ ~ ~ 2 9.OXZ.W @XOXOXb X             ",
"                        L.r.7 A.OXOXN.' OX|.2 5 D A A A v A A Z D Z 1 i.OXZ.U @XOXOXb . ]           ",
"                      D.f.n X B.OXOXn.] OXOXC.C.M.b.v.n.v.v.v.v.v.v.c.~.OXZ.J XXOXOXb . {           ",
"                      $.w . . C.OXOXN.' XXOXOXOX{.R./.(.(./././././._..XOXB.P XXOXOXb . {           ",
"                    l.B . . . Z.OXOXB.F C.A.A.A.n.x.c.c.c.c.x.c.c.6.S.Z.U.$.) OXOXOXN . {           ",
"                      e . . . p.@X Xi.h O.9.9.%.| E ! E ! ! ! E Q E ..*.q.J J !.@X|.s .             ",
"                    =.7 . . . 1.I.A.` s e.w.w.9.o.~ ~ ^ ~ ^ ~ ^ ^ ~ o.w.i.U s u.N.n.6 X             ",
"                    r.7 . . . u.`.).5.l e.w.w.w.0...~ ^ ^ ^ ^ ^ ( | ,.w.i.) a b.m.n.5 X             ",
"                  ^.=.7 . . . c.].`.7.b e.w.w.w.w.o.~ ^ ^ ^ ^ ~ ^ o.w.w.i._ A U.).T.u X             ",
"                L.D.I # . . . c.].`.7.b w.w.w.w.w.o.~ ^ ^ ^ ^ ^ ^ 9.w.w.i.W S Y.`./.a X             ",
"              G.d.] 6 . . . & n.]._.7.s O.w.w.w.w.;.Q | ^ ^ ^ ~ ^ ,.w.w.w.F D Y._.T.a o             ",
"              z.B X . . . . 6 m.`.`.6.i [ w.w.w.w.3.} ~ ^ ^ ^ ( ^ ,.w.w.O.F } T.)./.y *             ",
"              a.> . . . . . 8 m.[.].c.9 J e.w.w.w.w.,.} ~ ^ ^ ~ ^ ,.r.i.[ m <.T.).Y.9 7             ",
"              %.# . . . . . 2 4.m.m.-.6 M w.w.w.0.w.w.>.^ ~ ~ ~ ;.9.w.i.W i <.`.[.P.6 f             ",
"              #.O . . . . . - <.M.M.! O c q.w.q.q.q.w.q.,.} ^ o.w.w.w.i.J : v :.4. .6 B             ",
"              $.O . . . . . 6 P.}..X5.. q q.u.q.q.q.w.q.w.9...9.w.w.9.p.F X u T W c ; L             ",
"              $.# . . . . . 4 b.Y.T. .. & q.i.q.e.e.q.e.e.e.9.e.w.w.w.i.b . 4.].].<.6 I             ",
"              $.O . . . . . & T :.:.c . , 9.u.q.w.q.w.e.w.w.w.w.e.w.w.w.s & ;.Y.Y. .0 ] K.          ",
"              $.O . . . . . % D / ( S s J ` w.w.q.w.w.w.q.e.q.q.w.w.w.X.J S c } -.z w #.            ",
"              $.@ . . . . . . - 6 2 y F ) ) 9.w.q.w.w.w.9.w.w.w.w.w.u.) P ) a Q E u g y.            ",
"              $.@ . . . . . X . . . > ` ' c ^ ..,.w.w.w.w.w.w.w...} ,.J F ) 8 4 2 - L               ",
"              $.O . . . . & g h O . 3 X.` a E / } ..2.i.i.u.>.;./ ( ;.D F +.s . ; H                 ",
"              $.@ . . . . 7 $.s.V X : ` X.m z c z z c m Z b x c c c z l W $.m * I                   ",
"              $.@ . . . . r     l.r ; ' +.' F F F J i + . . ; M F F F J +.X.N d f.                  ",
"              %.# . . . . r     F.V 0 ` O.9.%.9.9.w.F o . . 6 O.w.9.9.9.$.o.M j d.                  ",
"              %.& . . . . r     K.L 0 J X.X.| X.X.O.m X . . 6 ` +.X.[ X.X.` N f d.                  ",
"              %.& . . . . e     G.C ; l M M M M M F y X . . : N S M M M M m w g j.                  ",
"              =.= . . . . e     F.C # 7 i i i i s s 6 . . . O i d i i i s 0 6 j j.                  ",
"              d.7 . . . . j     G.L : 1 0 0 0 0 0 0 & % e , O 6 i 0 0 y y 6 , L                     ",
"              V.U = . . X Y     K.*.w . . . X . . . . 7 ] C & . . . . X . . ; $.                    ",
"                j.] j n I       L.k.@.k e < q q q e B { d.y.I w . . . . . 7 P                       ",
"                                    F.k.a.=.r.r.y.y.k.F.J.G.V.=.L f p f C                           "
};
