/* XPM */
static char *cc00c1ecfe514526a06daaa63d199f76kw6FNgya7axdOQlh[] = {
/* columns rows colors chars-per-pixel */
"50 50 181 2 ",
"   c None",
".  c #010101",
"X  c #060708",
"o  c #0C0C0C",
"O  c #070808",
"+  c #100F0D",
"@  c #12110E",
"#  c #0E0F11",
"$  c #0E1112",
"%  c #131313",
"&  c #191714",
"*  c #1A1916",
"=  c #141619",
"-  c #15181D",
";  c #1C1C1B",
":  c #181719",
">  c #211E1B",
",  c #24211E",
"<  c #1E1F21",
"1  c #1D2125",
"2  c #242323",
"3  c #282624",
"4  c #2C2925",
"5  c #23262A",
"6  c #25282B",
"7  c #2C2B2B",
"8  c #312D2A",
"9  c #302B24",
"0  c #35322D",
"q  c #3A352C",
"w  c #292D32",
"e  c #262D35",
"r  c #2C3136",
"t  c #2D323A",
"y  c #343434",
"u  c #3A3732",
"i  c #3D3A35",
"p  c #33363B",
"a  c #35383D",
"s  c #3C3C3C",
"d  c #433D34",
"f  c #423E3A",
"g  c #44413C",
"h  c #4A453D",
"j  c #353A42",
"k  c #3A3E44",
"l  c #2F3742",
"z  c #3F4247",
"x  c #3A414B",
"c  c #3E4650",
"v  c #434344",
"b  c #4A4641",
"n  c #4E4942",
"m  c #41444A",
"M  c #4B4B4B",
"N  c #524D44",
"B  c #565149",
"V  c #5B554D",
"C  c #5A5349",
"Z  c #444A54",
"A  c #434D5B",
"S  c #47505D",
"D  c #4B525E",
"F  c #515151",
"G  c #56585B",
"H  c #5C5C5C",
"J  c #5B5853",
"K  c #635D54",
"L  c #676057",
"P  c #6A645A",
"I  c #6B655B",
"U  c #736A5E",
"Y  c #4F5762",
"T  c #4F5864",
"R  c #525A64",
"E  c #555E69",
"W  c #57616E",
"Q  c #5A636E",
"!  c #5D6165",
"~  c #5B6572",
"^  c #5E6876",
"/  c #5B6675",
"(  c #616263",
")  c #6C6C6C",
"_  c #746D62",
"`  c #786F65",
"'  c #6F706F",
"]  c #7A7166",
"[  c #7B7468",
"{  c #626A74",
"}  c #636D7B",
"|  c #6F6F70",
" . c #66707E",
".. c #68727F",
"X. c #737373",
"o. c #777779",
"O. c #7C7C7C",
"+. c #77797D",
"@. c #80776B",
"#. c #837A6E",
"$. c #857D71",
"%. c #887F72",
"&. c #807F7F",
"*. c #8C8376",
"=. c #8E8578",
"-. c #948A7C",
";. c #958B7C",
":. c #9B907E",
">. c #636F81",
",. c #667181",
"<. c #6A7583",
"1. c #6C7888",
"2. c #757B83",
"3. c #737B87",
"4. c #788495",
"5. c #7D8289",
"6. c #7F8DA1",
"7. c #848484",
"8. c #8C8C8C",
"9. c #85878A",
"0. c #998F82",
"q. c #9C9283",
"w. c #828E9E",
"e. c #8A8D93",
"r. c #89919A",
"t. c #949494",
"y. c #9C9C9C",
"u. c #A19685",
"i. c #A19788",
"p. c #A4998A",
"a. c #AA9E8E",
"s. c #AA9F90",
"d. c #ACA291",
"f. c #B5AA99",
"g. c #BAAE9E",
"h. c #B1A596",
"j. c #BCB09E",
"k. c #828FA2",
"l. c #8693A5",
"z. c #8997A9",
"x. c #8C99AB",
"c. c #989FAA",
"v. c #94A2B5",
"b. c #99A8BC",
"n. c #9DA1A4",
"m. c #A3A3A3",
"M. c #ACACAC",
"N. c #BFB4A2",
"B. c #B3B3B4",
"V. c #B7B7B8",
"C. c #BCBCBC",
"Z. c #CBBDAB",
"A. c #C3B7A5",
"S. c #CEC1AE",
"D. c #D5C6B3",
"F. c #9EACC0",
"G. c #A3B2C7",
"H. c #A8B7CD",
"J. c #A8B7CD",
"K. c #BFBFC0",
"L. c #ADBDD3",
"P. c #AEC0D6",
"I. c #BACCE3",
"U. c #BED0E7",
"Y. c #BFD2EA",
"T. c #C5C5C5",
"R. c #C6C8CB",
"E. c #D3D3D4",
"W. c #E7D8C4",
"Q. c #C1D3EB",
"!. c #CCD8EA",
"~. c #C9DCF5",
"^. c #C8DAF5",
"/. c #D6E1EF",
"(. c #CDE0FB",
"). c #D7E6F9",
"_. c #EAEAEB",
"`. c #EEF4FB",
"'. c #FFFFFF",
"]. c #F4F7FA",
"[. c #E0EBFA",
/* pixels */
"                                                      a.q.-.*.$.` I L                               ",
"                                                S.-.B f f i i 0 4 5 , % : g                         ",
"                                                h.n o X . + ; 7 i i i 8 , ; `                       ",
"                                                -.0 2 7 % . @ i V L L n 3 ; V                       ",
"                                                $.3 7 b v 2 # > h ` %.L u > d                       ",
"                                                #., 5 v v v a ; 2 f K V 4 5 > K                     ",
"                                                %.3 5 v v v v v 7 ; 3 ; o 7 O g f.                  ",
"                                              W.#.; 7 v v v v v v v 7 # o 7 O 0 d.                  ",
"                          D.j.a.a.p.u.:.:.:.u.*.0 . 7 v v v s s s f s r , 7 X 3 i.                  ",
"                        A.-.P V b g b v g g b a ; o 2 y 7 6 3 5 ; ; ; % : 7 O % -.                  ",
"                        a.g E  .6 x 4.v.z.z.x.z.b. .% $ % % @ % # # $ o % 3 X . L S.                ",
"                        #.7 6.} O Q I.^.Q.Y.Y.Y.).b.6 O o o @ % % @ % % : < X ; n a.                ",
"                        _ 5 x e 6  .b.J.G.G.G.G.L.x.a o % % % % % % % @ % o + 8.B U                 ",
"                        ] ; x ^ ^ Y Q  .>.} } }  .} j O o o % % % % % $ % O 0 T.Z h                 ",
"                        -.3 x >.c t T } ^ ^ ^ / / ,.m o % % o o o @ @ @ o : o._.g d                 ",
"                        f.V 2 # . - A / W W W W ~ ^ A a D j 5 : % @ o o O 1 4.!.r d                 ",
"                            @.V h 7 ; % # o = 1 1 1 $ r ,.^ Q T Z y < % o ; w.Q.7 q                 ",
"                                g.q.] K V C N N n q X % ~ <.<.1...} ~ R j a z.!.s q g.              ",
"                                  A.h.p.i.q.:.=.=.] , O c ^ ^ ^ } } { R m p w./.G i h.              ",
"                                i.] V N B N B N B h * X 1 7 6 < # # ; t w l F.[.G q d.              ",
"                            g.$.8 X X . X X O X O . . . 1 <.<.1.w.k.l.v.v.b.Q./.M 4 a.              ",
"                q.` K J K K g & . . . . . . . . . . . . t Q.Y.Q.(.(.~.~.~.^.Q.~.Q 8 p.              ",
"              *., X X . O . . . . . . . . . . . . . . . v '.'.`.`.`.`.`.].`.'.'.e.a ;.              ",
"              P . . . . . . . . . . . . . . . . . . . . v '.'.'.'.'.'.'.'.'.'.'.s.a =.              ",
"              _ O . . . . . . . . . . . . . . . . . . . ; 9.y.m.h.n.m.y.+.e.c.R.e.u %.              ",
"              i.N 3 o . . 7 Z t % z ~ E E E E E ~ x 7 ) M.V.K.T.T.T.E.C.G Y { n.M.f U               ",
"                A.i.U > . w.v.k 1 l.(.U.I.Q.Y.Y.~.J.2.T.'.'.'.'.'.].]._.m.X.7.M.T.f K               ",
"                    Z.U o  .R : 5 l.~.I.P.H.H.F.F.v.{ X.C.C.M.M.M.y.t.M.M.H X.m.C.a K               ",
"                      -.< j A E p Y l.4.3.1.1.} / 1.D s O.7.O.O.7.9.o.o.9.F | y.B.u N               ",
"                      i.3 c 3.k.e w } ~ / / / / / 4.Y 7 t.t.t.8.O.) H J H M | t.E.s f               ",
"                      f.B 1 e l X 6 W W W W ~ ~ ~ <.j ; o.P v a 5 o o o % m +.t._.v ,               ",
"                        q.M 3 ; : 7 a 1 < 1 5 1 5 6 % O 5 5 7 7 8 i a y i ) *.t.E.i , d.            ",
"                        D.j.p.-.-.*.U f o . . . . . . . . y O.*.9.t.t.t.t.8.7.8.E.s @ p.            ",
"                                        @.* . . . . . . . y 8.e.9.7.9.9.7.8.&.8.R.y o q.            ",
"                                        A.h . . . . . . . 2 8.8.7.7.7.7.7.7.7.8.V.8 o ;.            ",
"                    f.i.-.*.%.*.=.      0.i . . . . . . . ; 7.8.7.7.7.9.7.7.7.8.V.7 @ q.            ",
"                #.N u 4 2 : & : : : , u 0 o . . . . . . . ; O.8.8.7.9.7.9.7.+.8.M.7 @ ;.            ",
"              N o . . . . . . . . . . . . . . . . . . . . % X.e.8.7.7.7.8.7./ 2.m.3 +               ",
"              o . . . . . . . . . . . . . . . . . . . . . o ( 9.9.7.8.2.2.2.^ ,.r.5 @               ",
"              * . . . . . . . . . . . . . . . . . . . o % : e A A D ! S A S E W E o 9               ",
"              U : X O O O O . . . X . X X O O O . . # F X.H a k m m z m m j 5 < - O L               ",
"                =.U L L K K V V V V V V K K L K f . : | 7.&.O.O.O.O.o.O.O.H o . . b                 ",
"                                      A.Z.Z.Z.S.f.h 3 o.O.O.O.O.O.O.O.O.7.H O . 4                   ",
"                                                W.] f O.7.&.&.O.O.O.O.O.&.H X . I                   ",
"                                                  @.f ) ) ) X.X.X.X.X.O.2.H o d s.                  ",
"                                                  %.0 a y a v v M F F H ( v & ]                     ",
"                                                  q.d < 4 7 r 8 y y i y y 2 3 0.                    ",
"                                                  N.K % % % ; ; 1 2 2 5 ; # h d.                    ",
"                                                    i._ h 8 2 * @ o o o o > [                       ",
"                                                          p.0.=.#.] I L _ =.g.                      "
};
