/* XPM */
static char *c02e8027df9f4dbfb5d054cfafec55f26ZgQIu37dshykKtQ[] = {
/* columns rows colors chars-per-pixel */
"50 50 187 2 ",
"   c None",
".  c #000000",
"X  c #090706",
"o  c #0A0807",
"O  c #0D0D0C",
"+  c #070808",
"@  c #11110F",
"#  c #0F0F10",
"$  c #0E1112",
"%  c #131312",
"&  c #181715",
"*  c #1A1916",
"=  c #161719",
"-  c #16191B",
";  c #1C1C1B",
":  c #201F1E",
">  c #24211D",
",  c #191D22",
"<  c #171B20",
"1  c #1D2224",
"2  c #242323",
"3  c #292624",
"4  c #2D2B26",
"5  c #24262A",
"6  c #26282A",
"7  c #2C2C2B",
"8  c #322E27",
"9  c #322E2A",
"0  c #35322D",
"q  c #38342E",
"w  c #272C34",
"e  c #2D2F32",
"r  c #272F38",
"t  c #2E3033",
"y  c #2F343C",
"u  c #343434",
"i  c #393531",
"p  c #3E3B34",
"a  c #31363E",
"s  c #34383F",
"d  c #3C3C3C",
"f  c #423D37",
"g  c #433E39",
"h  c #46413B",
"j  c #4A453D",
"k  c #4B443B",
"l  c #353B43",
"z  c #3C3E41",
"x  c #373F49",
"c  c #3A3F48",
"v  c #303640",
"b  c #3D434B",
"n  c #37404C",
"m  c #3F4550",
"M  c #444444",
"N  c #4C4740",
"B  c #4E4941",
"V  c #42464D",
"C  c #4C4C4C",
"Z  c #46484B",
"A  c #524D45",
"S  c #565048",
"D  c #59534A",
"F  c #5E584F",
"G  c #434B55",
"H  c #454F5C",
"J  c #4A535E",
"K  c #4F5050",
"L  c #535353",
"P  c #5E5950",
"I  c #5D5D5D",
"U  c #565658",
"Y  c #615A4E",
"T  c #645E54",
"R  c #676057",
"E  c #6B645A",
"W  c #676158",
"Q  c #70675C",
"!  c #716A5F",
"~  c #4D5662",
"^  c #525A63",
"/  c #545D6A",
"(  c #5F5F60",
")  c #56606E",
"_  c #5A626F",
"`  c #5B6573",
"'  c #5E6876",
"]  c #5F6978",
"[  c #596474",
"{  c #636363",
"}  c #6B6B6B",
"|  c #686867",
" . c #746D62",
".. c #786F62",
"X. c #7B7266",
"o. c #7D756A",
"O. c #616C7B",
"+. c #616A76",
"@. c #65707E",
"#. c #757575",
"$. c #7C7C7C",
"%. c #77797D",
"&. c #837A6E",
"*. c #857C71",
"=. c #807F7E",
"-. c #8C8375",
";. c #8F8679",
":. c #918779",
">. c #948A7C",
",. c #998F7F",
"<. c #667281",
"1. c #6A7583",
"2. c #6D7A8B",
"3. c #747982",
"4. c #7B7E82",
"5. c #727C8C",
"6. c #76818E",
"7. c #7C8087",
"8. c #768293",
"9. c #788494",
"0. c #7F8B9D",
"q. c #858585",
"w. c #888887",
"e. c #8C8C8D",
"r. c #858688",
"t. c #998F81",
"y. c #978D80",
"u. c #9C9284",
"i. c #848C99",
"p. c #949494",
"a. c #9C9C9C",
"s. c #979797",
"d. c #A19788",
"f. c #A59B8B",
"g. c #A89E8E",
"h. c #AEA393",
"j. c #B2A695",
"k. c #B6AB9A",
"l. c #B9AD9D",
"z. c #828FA1",
"x. c #8592A4",
"c. c #8894A6",
"v. c #8B99AB",
"b. c #8896A8",
"n. c #929FB3",
"m. c #919BA7",
"M. c #95A3B5",
"N. c #99A7BB",
"B. c #9AA8BD",
"V. c #A3A3A4",
"C. c #ADADAD",
"Z. c #BEB2A1",
"A. c #B3B3B3",
"S. c #BCBCBC",
"D. c #C6B9A7",
"F. c #D6C9B5",
"G. c #DFD1BC",
"H. c #9DACC0",
"J. c #A7B5C8",
"K. c #B2BCCD",
"L. c #ACBDD2",
"P. c #B0BED4",
"I. c #AFC1D9",
"U. c #B6C6DB",
"Y. c #B9C8DE",
"T. c #B8C4D6",
"R. c #B6C9E4",
"E. c #BCCDE3",
"W. c #C3C3C3",
"Q. c #CCCCCC",
"!. c #D1D1D1",
"~. c #DEDEDD",
"^. c #E5D7C2",
"/. c #C1D3EA",
"(. c #D4D9E0",
"). c #CADCF4",
"_. c #C6D9F0",
"`. c #DDE4ED",
"'. c #CEE1F8",
"]. c #D3E4FB",
"[. c #D8EBFF",
"{. c #E3ECF7",
"}. c #EFF3FA",
"|. c #F3F3F3",
" X c #F4FBFF",
".X c #FEFEFE",
"XX c #ECECEA",
/* pixels */
"                              h. .S N B D T ..*.                                                    ",
"                               .> $ ; = % % ; 2 8 i S >.                                            ",
"                            d.p & - u C M u u 4 2 % O N                                             ",
"                            :.4 % O % u C C M M M C 6 7                                             ",
"                            o.; : 0 4 - 7 Z C M M C u : o.                                          ",
"                            T % 4 S W B - 2 M C M Z e ; ..                                          ",
"                            N % 2 F *.o.A ; > M C C e ; o.                                          ",
"                          u.h % % q P W Y p O - g C u ; X.                                          ",
"                          u.q % + X ; 4 4 4 O . - d u % j j.                                        ",
"                          *.* O % O O $ % % % O o 2 7 X o k Y Y E &.-.,.g.h.j.                      ",
"                        j.A . O % % % O @ # # % % % @ , y 5 = % = - 2 4 q p A  .f.                  ",
"                        *.3 % - % % % % % % % % % O % 5.E.L.J.J.B.i.c.[ , G ` U A j.                ",
"                        T | #.4 o % % $ % % % % @ X 6 M.[._.).'.).E.].v.x N.).v.; -.                ",
"                        f s.a.2 + % % % % % @ % O X t @.8.2.1.8.x.x.M.` n H.E.b.O &.                ",
"                        4 V.s.: + % % @ @ # O O # X l O.) ) / [ +.] 1.n 5 8.9.~ @ *.                ",
"                      &.2 i.i.; X @ O O # # % 2 a 2 H 2.' ] ] ' ` ` <.v # ] ` l 4 t.                ",
"                      X.: m.M., . O % 6 s V J / O.l 6 m x l l c x x n , . $ - 2 T                   ",
"                      X.& K.T.a 5 G ^ / ` O.<.<.1.e . % 7 7 7 7 4 4 i h h h A Q                     ",
"                    j.j o K.).J c ] <.O.O.+.' O.[ , * ! ,.:.:.:.:.:.                                ",
"              ,. .R k o @ K.].c.<._ J G l n J ' G 2 X.                                              ",
"          D.! ; O X . . e P.).E.L.B.v.c.x.9.1._ , - -.                                              ",
"          t.3 . . . . . M (.'.U.{. X X X].E.I.v.2 . q E  .E E  .*.                                  ",
"        ^.! X . . . . . M XX X{..X.X.X.X}.{. X`.Z . . o O O O O & i -.                              ",
"        G.F . . . . . . T  X.X.XW.C.!. X.X.X.X.XC . . . . . . . . . 9 t.D.                          ",
"        F.A . . . . . . #.Q.W.V.s.C.A.A.C.C.V.e.; . . . . . . . . . . > F ..>.k.                    ",
"        F.j . . . . . X | s.#.d !..X|.W.A.A.V.e.#.- - G V V V b b V c , - z Z T k.                  ",
"        F.g . . . . . o 7.s.%.S Q..X|..X.X.X.X.X.XL G '.E.Y.Y.U.U.E.P.<.^ B.5.6 -.                  ",
"          h . . . . . % V.a.$.#.a.C.C.A.S.Q.!.~.|.I ~ _.U.U.Y.E./._.Y.6.9.[.J.5 Q                   ",
"          D . . . . . O s.s.-.#.$.-.7.$.4.$.$.e.p.G ~ 0.8.8.9.z.b.b.z.^ ~ M.2.; E                   ",
"           .o . . . . O a.a.$._ 7.p.p.e.p.e.e.e.| 6 n O.` ` ` ` ` ' / x H 2.H % o.                  ",
"          y.> . . . . % T.h.$.L I } | | } | %.e.A . a ] [ / ) ) / ` J w r x r 2 ,.                  ",
"          u.4 . . . . % S.V.q.} L K L L L L T I ; . 7 b l s l l l z a ; o % i  .                    ",
"          f.9 . . . . % C.a.q.q.q.q.w.q.q.e.$.7 . 4 W W D D D D D D T  .&.:.                        ",
"          f.4 . . . . % V.a.q.q.e.q.q.e.q.e.p.7 *                                                   ",
"          d.4 . . . . - V.s.$.q.q.q.q.q.q.q.p.6 8                                                   ",
"          f.9 . . . . 2 h.s.q.w.e.q.q.q.q.e.e.6 > f.                                                ",
"          k.h . . . . > p.s.q.q.q.q.q.q.q.e.q.2 X S -.u.h.                                          ",
"            P . . . . , i.p.%.' $.e.q.q.w.e.$.2 . . # 4 h B B A T &.                                ",
"            -.; . . . ; 4.5.` ] 4.q.3.q.q.q.#.; . . . . . . . . . 3 u.                              ",
"            Z.A . . . # / O.[ / [ [ [ 4.3.O.J & X . . . . . . . . O -.                              ",
"              -.: . . . w v a b G G G ^ [ ) x b U M O . . . . . . 2 u.                              ",
"              Z.D . . . . . . C _ L U M z h g { q.| 2 . . . . ; A *.                                ",
"                u.0 . . . . . { =.#.#.} | | } #.$.#.2 . 2 B W -.                                    ",
"                    * . . . . { -.%.%.$.$.$.7.%.$.} 2 8 >.Z.                                        ",
"                    o.A 4 X . { q.%.#.#.%.%.#.#.%.| q W                                             ",
"                        d.A o C #.| ( I L C L Z h b 9  .                                            ",
"                          t.- 7 M z d d i u u e 6 5 4 &.                                            ",
"                          g.4 = 4 e 7 7 7 4 2 2 ; + p f.                                            ",
"                          l.P % o # O + o O % * 2 g o.                                              ",
"                            f.R h g g j D T E X.;.h.                                                "
};
