/* XPM */
static char *_524009a1be1406491a2999b79b925d0SWDvARXri1or9Aj6[] = {
/* columns rows colors chars-per-pixel */
"50 50 191 2 ",
"   c None",
".  c #000000",
"X  c #080704",
"o  c #080806",
"O  c #0D0D0C",
"+  c #110F0C",
"@  c #11110F",
"#  c #18140F",
"$  c #0B0D11",
"%  c #131313",
"&  c #1B1916",
"*  c #1B1B1B",
"=  c #161718",
"-  c #211E1A",
";  c #241E15",
":  c #23211E",
">  c #2A261F",
",  c #1E2329",
"<  c #242423",
"1  c #292723",
"2  c #2C2A25",
"3  c #24262A",
"4  c #2B2B2B",
"5  c #24282A",
"6  c #302D2A",
"7  c #35322D",
"8  c #3A342D",
"9  c #292D32",
"0  c #2D3137",
"q  c #2C333C",
"w  c #333333",
"e  c #393631",
"r  c #3D3A34",
"t  c #343639",
"y  c #3B3B3C",
"u  c #413D36",
"i  c #4A453D",
"p  c #474239",
"a  c #2E3741",
"s  c #333A44",
"d  c #3D3F42",
"f  c #353D48",
"g  c #3F4146",
"h  c #3C4148",
"j  c #434344",
"k  c #4E4943",
"l  c #444649",
"z  c #4D4D4D",
"x  c #474848",
"c  c #524D45",
"v  c #554F48",
"b  c #565149",
"n  c #59534B",
"m  c #444A53",
"M  c #494D52",
"N  c #4D5054",
"B  c #4C535C",
"V  c #525252",
"C  c #5C5953",
"Z  c #53565C",
"A  c #5B5B5B",
"S  c #625C53",
"D  c #6C655B",
"F  c #6C6457",
"G  c #5D5F61",
"H  c #545D69",
"J  c #595F69",
"K  c #59616C",
"L  c #5C6167",
"P  c #546273",
"I  c #5B6674",
"U  c #5D6876",
"Y  c #5F6A79",
"T  c #646463",
"R  c #686867",
"E  c #6B6B6B",
"W  c #67696C",
"Q  c #746D62",
"!  c #7A7166",
"~  c #7C7469",
"^  c #74706A",
"/  c #616A76",
"(  c #626C79",
")  c #67707C",
"_  c #6C747E",
"`  c #6F7070",
"'  c #747474",
"]  c #7B7B7B",
"[  c #76787B",
"{  c #80776C",
"}  c #847B6E",
"|  c #857D71",
" . c #887F73",
".. c #8C8375",
"X. c #8E8578",
"o. c #82807F",
"O. c #90877A",
"+. c #968C7E",
"@. c #988E7F",
"#. c #908474",
"$. c #5F6E80",
"%. c #616F81",
"&. c #6C7581",
"*. c #6E7885",
"=. c #677688",
"-. c #747A83",
";. c #797D84",
":. c #737C87",
">. c #7D8287",
",. c #768392",
"<. c #798694",
"1. c #848484",
"2. c #868789",
"3. c #87898D",
"4. c #8B8B8B",
"5. c #978D81",
"6. c #988F82",
"7. c #908F8D",
"8. c #9D9283",
"9. c #92908E",
"0. c #858B93",
"q. c #828C99",
"w. c #8D939D",
"e. c #939393",
"r. c #9B9B9B",
"t. c #A59B8B",
"y. c #A69A8C",
"u. c #AA9F90",
"i. c #AFA393",
"p. c #B0A595",
"a. c #B9AE9C",
"s. c #B5AB9A",
"d. c #BCB09F",
"f. c #8796A9",
"g. c #8C9AAC",
"h. c #8492A3",
"j. c #939EAD",
"k. c #909FB3",
"l. c #98A6B9",
"z. c #9CAABC",
"x. c #94A1B3",
"c. c #A3A3A2",
"v. c gray67",
"b. c #BEB3A1",
"n. c #B5B4B4",
"m. c #BBBBBC",
"M. c #B5B8BB",
"N. c #AAAFB6",
"B. c #C2B6A4",
"V. c #C6BAA7",
"C. c #C6BBA9",
"Z. c #CABEAB",
"A. c #C2C0BE",
"S. c #D6C7B4",
"D. c #DBCDB9",
"F. c #D6C9B5",
"G. c #DFD1BC",
"H. c #E1D2BE",
"J. c #9FADC0",
"K. c #A3B2C5",
"L. c #A7B5CA",
"P. c #AABAD0",
"I. c #BEC0C0",
"U. c #B4C5D9",
"Y. c #B9C9DE",
"T. c #B4C3D7",
"R. c #BDCDE3",
"E. c gray78",
"W. c #CBCACA",
"Q. c #D3D3D4",
"!. c #DCDCDB",
"~. c #EEDFC9",
"^. c #E5D7C2",
"/. c #C4D6ED",
"(. c #C6D8EE",
"). c #CBD5E6",
"_. c #DADFE3",
"`. c #C6D9F1",
"'. c #CADCF2",
"]. c #C3D7F0",
"[. c #CFE1F7",
"{. c #CFE1FA",
"}. c #D3E6FD",
"|. c #D6E6F9",
" X c #E5E5E5",
".X c #E8EAEB",
"XX c #E8FDFF",
"oX c #F2F2F3",
"OX c #FEFEFE",
"+X c #F7FBFF",
"@X c #E5EFFA",
/* pixels */
"                                       .S k k k k k k k k v R @.                                    ",
"                                    D % @ % @ @ @ @ @ @ @ % O 6 5.                                  ",
"                                  u.u O y j d d d j u d d l < @ D V.                                ",
"                                ^.O.2 * V A V C Z V Z C Z S d % c a.                                ",
"                        Z.a.p.B.B.! : * z V V z V z V V z Z y O p p.^.H.                            ",
"                      B.~ 8 ; p ! S * * V V z V z V z z V C y % r 6.a.X.F F @.B.                    ",
"                    S.+.z Z / Z x r @ * z V V z V V z z V V y % 8 Q D 3.0.0.R ! V.                  ",
"                    V.D B P.XXK.j # O < A A A A A A A A A T j % 8 i , k.'.}.P 8 i.                  ",
"                    B.v t *.k._ < X O = t y e t w w t e t y 4 O 6 8 @ _ x.g.f 1 6.                  ",
"                    a.i 5 I q.I * X @ . . . . . . . . . . . . o 2 2 + <.K.q.q : O.                  ",
"                    p.r M L.}.z.0 X = . . . . . . . . . o % O o 1 > o l.}.'.K : ..                  ",
"                    t.2 U R.}.J.0 X & . . . . . . . O % % = O o < > $ z.}.}.I : ..                  ",
"                    8.- / R.'.z.0 o & . . . . . O @ % % % = O X * - < z.}.'.K : ..                  ",
"                    +.; ) (.}.J.0 . % . . . o $ % = % % % = $ o % & 9 L.}.'.I : ..                  ",
"                    8.- <.[.'.l.9 . . . o @ % % % % % % % % O . . . 3 K.'.`.K < ..                  ",
"                  ~.u.8 g J G l $ . . . $ % % @ % @ @ % % % @ . . . = ,.g.f.m 1 }                   ",
"                D.D.t.u >.Z.m.1.T 2.R * $ $ @ O $ @ $ $ O @ X % z j b M._._.N o } D.                ",
"              t.X.+.Q 1 L.OXOX!.W.OXQ.y $ = * * * * * * * * . 9 !.!.n.oXOXOXG . ! D.                ",
"            ~ 4 - 1 - . m.OXOX!.!.OXQ.N B H J K H J K J K ( 3 w OXOXW.oXOXOXA . Q S.                ",
"          s.i . . . . . n.OXOX!.Q.OX!.z , 9 w 9 9 w 0 0 0 0 $ x OXOXE.oXOXOXA . Q                   ",
"          8.6 . . . . . m.OXOX!.Q.OXoXr.V f d h h h h h f d T m.OX+XW.oXOXOXT . Q                   ",
"          5.1 . . . . . c.oX XE.Q.OXOXOXOX|.(.'.'.'.'.'.`.@XOXOXOX+XE.Q. XoXb . !                   ",
"          +.1 . . . . . T r.1.c. XOXOXOX+X'.(.'.'.(.(.(./.|.OXOXOXOXW.e.4.r.9 . !                   ",
"          +.2 . . . . . T r.1.e.Q.oXoX.XU.T.U.T.U.U.Y.Y.Y.T.).+XOXoXI.4.4.r.w . Q                   ",
"          @.2 . . . . . E v.1.W ;.h.w.w.q.,.,.,.,.w.g.g.g.f.j.M.M.N.0.1.e.c.e . !                   ",
"          @.2 . . . . . R r.e.A C 2.1.2.1.( P I I U ( ( Y U _ 3.4.1.A [ w.u.4 O X.                  ",
"          +.1 . . . . . < y t w A 9.4.7.2.( I U I U I I I I I -.4.1.z x V Z = 8 i.                  ",
"          +.1 . . . . . . . . o Z e.4.4.1.( U ( Y U U Y U U I ) e.1.4 . = r C X.                    ",
"          X.: . . . . . . . . . x e.4.7.2.U I U U I U U U U U ( e.1.& @ C 6.                        ",
"          ~ % . . . . . . . . . d r.7.4.4.>.( U ) ;.>.) I U ( ;.r.] % i                             ",
"          D X . . . . . . . . . w e.4.4.4.4.U P ;.9.7.2.) P %.4.e.E O F                             ",
"          b . . . . . . . . . . 4 2.4.4.4.4.-.[ 4.4.4.4.2.&.;.9.4.T * D                             ",
"          i . . . . . . . . . . : ' 7.4.4.3.4.7.4.3.4.2.4.7.4.7.2.V 4  .                            ",
"          i . . . . . . . . . . * R 7.4.4.4.4.4.4.4.4.4.4.2.4.9. .t r t.                            ",
"          n . . . . . . . . . . % A e.4.4.4.4.4.4.2.4.2.4.4.4.e.] 4 i                               ",
"          { * . . . . . . . . . . z e.4.2.4.4.2.4.4.4.4.4.4.4.e.' % w 8.                            ",
"            n X . . . . . . . . . x e.4.4.2.4.4.4.4.4.1.4.4.4.r.' . @ ~                             ",
"              Q 7 . . . . . . = * j e.4.4.4.3.3.4.2.4.4.4.4.4.9.' = O c p.                          ",
"                8.i X . . . . 4 z V 2.4.4.4.3.4.4.1.4.4.4.4.4.1.R V l w ..                          ",
"                  y.i . . . . 4 T S [ 4.4.4.4.4.4.4.4.4.4.4.9.] C ` A < {                           ",
"                    +.w . . . 4 T S ` 4.9.4.4.4.4.3.4.4.7.2.4.[ z ` A 4 }                           ",
"                    C. .6 . . 4 ' J M &.*.*.4.e.4.7.9.1._ _ *.I l ' A e X.                          ",
"                      C.| 2 . < [ S f %.%.%.:.;.e.0.:.*.( %.=.H g ` A r @.                          ",
"                        C.Q O : ' T 9 0 a t q s N m s s a a q s A ' A r +.                          ",
"                        ^.p.7 < [ [ V j g l l : . . O 9 l j y z o.1.A r +.                          ",
"                        ~.B.k < Z T T R R E T 5 . . . j ` R R T G A j 8 +.                          ",
"                        ~.C.c % 2 9 w w w w w % . . . < t w w w w 4 < 7 8.                          ",
"                          Z.S % * 2 3 5 2 4 2 o . . . % 4 2 3 2 2 , = k                             ",
"                          F...e % & = = & & & % * 1 & % * * * = = = : ~                             ",
"                          H.b.+.D c i j i i v Q ..O. .Q v i j p i C                                 "
};
