/* XPM */
static char *_db32df16c244ff2dc5775ae1f89ca7bHcvmizGFwsxGlsLE[] = {
/* columns rows colors chars-per-pixel */
"50 50 235 2 ",
"   c #020204",
".  c #01020C",
"X  c #080809",
"o  c #0C0C0D",
"O  c #140D02",
"+  c #110F0D",
"@  c #181309",
"#  c #010213",
"$  c #050914",
"%  c #0D0E14",
"&  c #000219",
"*  c #030A1A",
"=  c #0B0D1A",
"-  c #0E1011",
";  c #0D111C",
":  c #111213",
">  c #191514",
",  c #1E1915",
"<  c #181619",
"1  c #16181A",
"2  c #1E1C1C",
"3  c #241A03",
"4  c #261A09",
"5  c #221B14",
"6  c #2C1A13",
"7  c #221E1C",
"8  c #291E19",
"9  c #382706",
"0  c #2C2415",
"q  c #26221F",
"w  c #2B221C",
"e  c #342818",
"r  c #362A1A",
"t  c #39301D",
"y  c #020A23",
"u  c #020B23",
"i  c #081024",
"p  c #08122A",
"a  c #151921",
"s  c #1E1F21",
"d  c #171A2A",
"f  c #181E35",
"g  c #221F22",
"h  c #1F2021",
"j  c #232222",
"k  c #2A2524",
"l  c #2D2926",
"z  c #28262A",
"x  c #272829",
"c  c #2C2B2A",
"v  c #332724",
"b  c #322A26",
"n  c #392B23",
"m  c #322D2C",
"M  c #3B2D28",
"N  c #35302E",
"B  c #3B322E",
"V  c #352E35",
"C  c #2F3030",
"Z  c #2F333A",
"A  c #343333",
"S  c #3B3634",
"D  c #3E3937",
"F  c #373738",
"G  c #383639",
"H  c #3D3B3A",
"J  c #452E04",
"K  c #4B350B",
"L  c #5A3D09",
"P  c #4D3611",
"I  c #44361C",
"U  c #4E3C1A",
"Y  c #563D18",
"T  c #433422",
"R  c #453527",
"E  c #4C3D23",
"W  c #423733",
"Q  c #423935",
"!  c #4E3C37",
"~  c #43363B",
"^  c #433E3C",
"/  c #4B3D3B",
"(  c #523E30",
")  c #5B420E",
"_  c #594319",
"`  c #64420C",
"'  c #704F0F",
"]  c #76510C",
"[  c #634717",
"{  c #6A4E16",
"}  c #644B1D",
"|  c #6B4F1C",
" . c #724E19",
".. c #765616",
"X. c #594727",
"o. c #45403E",
"O. c #4B413E",
"+. c #51423C",
"@. c #57493B",
"#. c #5B533F",
"$. c #694E22",
"%. c #66512D",
"&. c #6A522A",
"*. c #775529",
"=. c #63523A",
"-. c #7E6334",
";. c #373B5E",
":. c #423C4F",
">. c #33405C",
",. c #454343",
"<. c #4B4544",
"1. c #4D4846",
"2. c #42434B",
"3. c #494749",
"4. c #4D4A4B",
"5. c #534541",
"6. c #544945",
"7. c #5B4B46",
"8. c #524D4C",
"9. c #5A4D4B",
"0. c #54504E",
"q. c #5A514E",
"w. c #5F594E",
"e. c #4E4F53",
"r. c #4A4C56",
"t. c #534E50",
"y. c #4F5055",
"u. c #545353",
"i. c #5B5554",
"p. c #5D5856",
"a. c #565659",
"s. c #5A5659",
"d. c #575859",
"f. c #5C5B5B",
"g. c #67564D",
"h. c #755E4F",
"j. c #605652",
"k. c #625956",
"l. c #6B5C54",
"z. c #635D5C",
"x. c #625E5D",
"c. c #6A5F5C",
"v. c #6D604F",
"b. c #6E6355",
"n. c #66615F",
"m. c #6A625E",
"M. c #776856",
"N. c #555763",
"B. c #5D5E61",
"V. c #5A5C6A",
"C. c #615F61",
"Z. c #5F6062",
"A. c #5E6371",
"S. c #636263",
"D. c #656261",
"F. c #666565",
"G. c #6A6563",
"H. c #6A6665",
"J. c #6C6867",
"K. c #666769",
"L. c #6A6768",
"P. c #67686A",
"I. c #6A6969",
"U. c #6D6A69",
"Y. c #6C6A6A",
"T. c #706966",
"R. c #786D61",
"E. c #726D6C",
"W. c #75706E",
"Q. c #7C7369",
"!. c #636670",
"~. c #676A73",
"^. c #6B6D72",
"/. c #706F71",
"(. c #6F7177",
"). c #747373",
"_. c #797574",
"`. c #747679",
"'. c #7A7A79",
"]. c #845A0C",
"[. c #835C16",
"{. c #9F6B0C",
"}. c #8B6415",
"|. c #9A6E16",
" X c #966818",
".X c #946A1B",
"XX c #9D711A",
"oX c #A16D12",
"OX c #A47215",
"+X c #AC7916",
"@X c #A4731A",
"#X c #AA7418",
"$X c #AB7A1D",
"%X c #B47C14",
"&X c #B47B1A",
"*X c #915F23",
"=X c #946B23",
"-X c #9C742A",
";X c #8F6B32",
":X c #A37422",
">X c #A67A20",
",X c #AE7B23",
"<X c #A47429",
"1X c #B47B25",
"2X c #A77B30",
"3X c #806F56",
"4X c #BB8115",
"5X c #B9841B",
"6X c #BA821C",
"7X c #AD852D",
"8X c #B78625",
"9X c #BB8A2D",
"0X c #B68B36",
"qX c #C88815",
"wX c #CA8B15",
"eX c #C1871B",
"rX c #C48B1B",
"tX c #CA8D1A",
"yX c #D28F1A",
"uX c #CC9117",
"iX c #CF931C",
"pX c #D99719",
"aX c #D6991A",
"sX c #C48922",
"dX c #CD9423",
"fX c #CD952B",
"gX c #D29522",
"hX c #D59A25",
"jX c #CC9533",
"kX c #D29C39",
"lX c #D8A026",
"zX c #E7A827",
"xX c #F3AD20",
"cX c #8E8062",
"vX c #878484",
/* pixels */
"s.j l c x x x x x k x c c x x c x x x x x x l x x l x x k x x x x x x x x c c c c x x x l x c c x 3.",
"2 - H F S D S D H H S F N q l b N w j N D H H o.D S ^ S S D N k q N S k j l F B S ^ D H o.o.o.O.q o ",
"j c F H I.W.U.U.I.E.s.A o.4.o.q.n.O.o.p.H.p.0.1.<.1.f.x.p.n.p.<.H q.k.1.1.o.N 4.E.E.U.E.U.U.e.F A 2 ",
"j N ^ ,.H.H.I.n.z.I.f.H o.H c u.I.F N p.H.F : h h > l Z.f.d.x.D N q.f.N S ,.F 0.U.I.H.I.I.n.1.H o.h ",
"h B H.n.S.p.n.n.w.m.I.F.F.p.u.n.H.p.i.I.S.l @ n.8.C 7 x.Z.d.F.i.+.l.n.6.0.F.J.F.P.I.I.H.n.n.k.I.4.2 ",
"h N m.p.x.f.n.H.m.n.F.G.J.U.W.H.H.E.W.E.x.^ > k N q N n.x.p.J.U.J.n.z.F.I.E.U.S.J.I.n.b.p.n.H.J.8.2 ",
"h B J.n.k.n.O.N l m c m l c C N N N N N l c l , q q c N c k N N N m c m b m N m N c m o.k.n.k.W.0.7 ",
"j N Q.U.n.o.-   X o - - : : - - o : - o o : 1 1 1 : : + : : + - : : % % o o X o o X   X B n.n.W.u.2 ",
"j S W.U.9.:   2 c c A F G G F F F A m m m A N N A A A A A A A A F A b m A F A C c c j X X O.U.).8.2 ",
"h F W.J.W   > l F ,.o.>.3.4.3.4.u.,.1.4.4.4.4.:.1.3.1.4.,.4.0.4.3.<.,.,.4.3.,.3.^ F A q   l S._.0.7 ",
"j D W.m.W X 7 m N <.o.Q u.a.a.a.u.e.s.a.0.4.u.u.3.4.u.8.t.8.8.u.4.s.u.8.u.u.4.8.3.,.3.c X l c.).0.7 ",
"h B E.m.Q : 7 F H o.o.O.1.8.8.s.Z.f.0.f.u.4.4.1.,.1.1.4.4.8.8.u.f.s.6.t.8.9.f.4.,.4.<.N - l S.).O.2 ",
"h N W.J.W o k D o.O.<.8.8.6.i.S.F.f.i.B.i.0.i.u.f.i.u.F.f.p.p.9.8.x.s.s.i.7.0.s.8.1.,.m : b F.J.O.2 ",
"j N E.H.B o c <.<.o.W +.8.9.C.K.I.P.f.6.i.S.f.F.f.f.L.s.8.H.z.p.z.z.k.f.i.i.q.9.0.0.6.A o k k.G.1.7 ",
"2 F ).J.S o A e.<.n / i.f.x.q.S.n.7.9.6.i.9.C.x.S.f.k.9.7.G.z.k.c.G.k.k.j.p.i.9.8.6.O.m : c j.U.0.2 ",
"j A ).J.S + m 8.O.W i.^.I.S.p.k.i.i.q.6.5.! z.q.C.J.i.i.s.j.C.C.Z.n.J.k.p.k.p.i.i.6.<.A : k c.).8.2 ",
"h F W.J.S - m 4.1.<.f.U.I.z.S.j.i.L.S.x.z.q.p.S.I.^.5.7.i.9.7.m.G.l.C.J.C.k.z.C.k.i.1.G : k G._.1.2 ",
"h S _.U.S : F 3.:.3.S.I.I.k.8.N.K.n.m.z.s.V.u.S././.q.9.s.8.g.m.l.g.7.x.^.C.T.C.i.r.e.G : l G.'.0.2 ",
"h m I.n.S : Q q.i.n.u.N.C.l.q.c.!.N.i.i.b.M.J.^.A.F.m.Q.c.c.k.C.k.c.h.g.G.k.s.k.c.l.:.M + j f.I.,.2 ",
"q l G.p.M . 5 [.:X>XY * = n 1XqX7X%.* = _ fX9X0X7.i s &.jX0X2Xn u z -.dX1X=X= $ z [.{.` @ 7 i.H.o.2 ",
"h n W.l.R     4 {.4XOX` . = Y tXpXqXE u a X.dXtX>X2 y h ;XgXfX:Xz u < =XyX&X .# # o ].].3 g f.).@.q ",
"h A W.n.S O   . 5 +XuX%XT d # I fXeX8X@.p * X.1X&X#Xc u = $.sX1X2Xk u a  .=X&X X$ # o L 9 k x.).<.2 ",
"h S W.J.F 9 9 . # 0 rX@X*.P # & E 9XyXdXt p p U gXxXlX, u f $.sXkX<X7 & # (  XtX[.X . + 3 n S._.4.2 ",
"h S ).I.S @ ) P . # 0 XXOX|.T = & E *.-X6Xb.>.* %.9XzXiXm f & *.<X#X@X< # 8 &.}.eX..$     m n.).8.2 ",
"h N W.S.A 3 J ] ) $ # 8 |.5X=Xv ; # f ;XiXjX7.# &  .7XhX#X0 # = _ 7XiX X> * f [ +X+X' X   c Z.(.1.1 ",
"j l T.c.m X J ` %X..# # r +X$X<X*.y $ P $XaXqX_ # * E @XqX6Xw & $ | hXuXOXw # ; { 4X|.K   2 ).vXD 2 ",
"x w m.E.M   . ` ] ].{ $ # > }.+X6X|.$ & 0 >X.XtX} # * E  .@XtXr # # | >X6X6X- & $ ) }.] @ 5 W.cXB 2 ",
"x l k.n.D     > ..|.uX..$ # 7 |.$X2XE & # t -XsXeXW f V :.&.pX,X2 & y I tXiX@X, # * [ ].4 w 7.Z.o.7 ",
"j D ).H.^ O   # 5 OXaXrXY # # X.l.;.;X{ & * I :XdX<XT d 5.~ <XsXeX0 # - { 6XpX=X# i 1 K 9 q w./.0.2 ",
"q S _.U.G 4 9 % . @ +XtXqX` # ; ~ ~ &.xX$.# # r 6XpXqXe = V | &XsXqX0 # # }.uX5X|., # X 3 v S.'.8.2 ",
"h D _.U.F 4 ] L - # , oX:XrX{ # k / *.tXpXX.= & U pXpX&X6 z =  .sXyX+Xv # $ ..rXrX X,     l n._.8.2 ",
"h D _.n.D : B 7.1.7.;.i.t.R.=.< x.H.l.9.M.cXS.B.t.b.h.3Xg.8.x.N.M.b.M.R.d.r.a.b.w.b.j.Z - l n._.0.2 ",
"j Q ).m.D - Z r.u.n.n.u.1.f.:.b _.).Y.~.!.~._.'.L.N.V.!.^.).).L.V.V.~.`.E.).^.V.N.y.a.3.% l n._.8.7 ",
"h H W.G.Q - N 1.u.f.s.6.6.7.9.5.z.Y.Y.G.z.L.T.).C.c.U.E./.J.C.c.C.Y.L.s.x.F.S.S.f.u.e.H - l F._.8.2 ",
"h D _.J.Q : C 4.u.Z.Z.u.S.p.i.k.S.U.z.k.k.c.C.z.j.C.^./.z.i.z.k.p.Y.t./ S.P.F.S.B.f.u.F - c n.).0.2 ",
"j Q _.W.Q - A 3.u.d.p.Z.S.S.J.F.U.`.H.c.C.E.c.i.9.G.).C.s.S.B.L.i.s.p.5.8.F.S.Z.f.a.4.F : b m._.0.2 ",
"h D W.J.W - C 3.u.d.d.n.f.n.P.K.U.F.x.q.F.I.U.F.q.7.k.C.U.U.C.C.z.S.C.f.f.f.Z.f.u.4.4.F o b G.).0.7 ",
"h S W.I.D o c ,.u.d.s.0.f.S.n.F.x.x.S.m.H.n.F.I.k.! 7.C.Y.C.C.f.f.C.f.f.S.f.Z.s.d.d.4.A : c z.W.y.2 ",
"j H _.I.B : c ,.y.a.a.u.n.f.u.q.i.S.F.x.p.f.p.P.z.:.@.j.C.C.C.s.S.S.B.a.p.u.p.C.d.4.,.C : l z.W.8.2 ",
"h H _.U.W - c 1.4.4.a.u.u.s.u.8.S.S.K.x.p.L.S.F.s.q.! ( x.f.i.f.f.S.S.f.f.s.u.t.4.3.o.C : l n.).0.2 ",
"j G _.G.S o q ,.2.4.u.u.1.u.s.Z.p.0.i.n.P.P.P.Z.x.q.O.9.n.p.s.f.f.Z.Z.d.d.f.0.o.Q 4.H c : l n./.y.2 ",
"j B U.G.Q + j H ,.3.<.4.y.d.Z.p.0.8.f.S.F.Z.P.Z.p.5.O.9.d.f.Z.a.i.d.i.d.1.O.4.4.4.4.,.c : l n.).0.2 ",
"j m T.H.S : j ,.3.2.H o.y.d.u.u.d.f.Z.F.Z.P.P.P.S.8.8.Z.Z.f.f.4.d.d.u.y.8.1.3.s.y.4.2.c o l n.W.<.2 ",
"j m m.c.W o j Q ,.,.H B v S 0.f.Z.Z.Z.B.Z.Z.Z.Z.f.s.Z.s.4.F.f.1.d.i.o.u.u.0.0.y.4.2.o.C o l n.U.O.h ",
"j n U.T.W o j A H Q :.D l 0 o.Z.d.B.B.p.f.d.f.u.a.s.0.O.n u.1.W 8.4.4.4.4.H D ,.,.H ^ c o l p.I.O.2 ",
"j m T.m.D - 2 k o.o.o.^ H 0 F f.B.f.d.B.d.u.u.4.u.0.4.4.~ / O.D 1.1.u.u.o.H 1.1.>.N N q - C v.J.O.1 ",
"j S E.m.D o > N H A F 3.M , w O.u.a.d.8.u.4.1.4.u.u.0.a.<.Q 8.4.H 1.u.4.o.0.0.1.O.o.S x o N n._.8.2 ",
"h H _.U.Q X 2 D l k F m 8 0 4 B <.u.a.1.<.,.0.u.u.u.u.8.s.4./ / D ,.4.,.o.S A Q D o.D k o c Y.'.u.2 ",
"1 N E.n.M o x N b N F b w v 6 n / 4.4.4.4.3.0.4.e.t.4.4.u.3.Q S O.B D o.o.,.D S H H A q o k k.W.<.> ",
",.q m l q j c c c c c m c c k k c c c m N C c C N C C c C c c k C l c c c N C l c c c l j j l N j S "
};
