/* XPM */
static char *cec42910287247fcb898fe212f48681bqPeWQlieTDsJn126[] = {
/* columns rows colors chars-per-pixel */
"50 50 94 2 ",
"   c #000000",
".  c #060708",
"X  c #060809",
"o  c #0B0B0B",
"O  c #110E0E",
"+  c #12100F",
"@  c #0F1011",
"#  c #141414",
"$  c #191616",
"%  c #1C1817",
"&  c #171718",
"*  c #171819",
"=  c #1D1C1C",
"-  c #211E1D",
";  c #291D18",
":  c #23201F",
">  c #28211D",
",  c #1F1F20",
"<  c #1F2020",
"1  c #232424",
"2  c #2A2524",
"3  c #272827",
"4  c #2E2927",
"5  c #272728",
"6  c #272829",
"7  c #2A2A2A",
"8  c #322925",
"9  c #3B2D26",
"0  c #332D2B",
"q  c #382E29",
"w  c #36302E",
"e  c #3B322D",
"r  c #2E2F30",
"t  c #302F31",
"y  c #343434",
"u  c #3B3533",
"i  c #3E3936",
"p  c #353738",
"a  c #363839",
"s  c #3D3B3A",
"d  c #41332C",
"f  c #423732",
"g  c #443935",
"h  c #4A3D37",
"j  c #423D3B",
"k  c #483D38",
"l  c #45403E",
"z  c #4B413D",
"x  c #3E3E40",
"c  c #444343",
"v  c #4A4543",
"b  c #4E4946",
"n  c #4C4B4A",
"m  c #514946",
"M  c #5D4B43",
"N  c #514D4C",
"B  c #54514F",
"V  c #59524E",
"C  c #514F50",
"Z  c #535353",
"A  c #5B5553",
"S  c #5C5856",
"D  c #5D5B5B",
"F  c #635A56",
"G  c #635E5C",
"H  c #695F5C",
"J  c #66605E",
"K  c #6B615D",
"L  c #666565",
"P  c #6A6664",
"I  c #6D6867",
"U  c #676868",
"Y  c #6B6A6A",
"T  c #706462",
"R  c #716A66",
"E  c #726D6B",
"W  c #73706F",
"Q  c #6E6F70",
"!  c #757373",
"~  c #7A7574",
"^  c #767778",
"/  c #787778",
"(  c #777878",
")  c #7B7A7B",
"_  c #817E7F",
"`  c #848383",
"'  c #898584",
"]  c #888688",
"[  c #878888",
"{  c #8C8C8C",
"}  c #939393",
"|  c #9C9C9C",
" . c #B4B4B4",
".. c #BCBCBC",
/* pixels */
"Z 1 3 4 3 3 5 3 5 4 6 7 7 7 6 6 6 1 4 6 6 6 1 6 6 3 4 6 6 1 4 6 3 4 6 6 5 4 4 4 6 6 4 6 3 3 4 7 1 n ",
"& = l y y u w u i s y y y 0 0 0 q 0 7 0 u u s j i s j y y u w 7 4 w y w y 7 i w y i i a i i s l : @ ",
"= y i j Y Y P P Y Y D 7 j S A G K V Z L I G S B B N L G F G P A N G P Z D c 4 N Y I I I P Y n y w : ",
"1 y j c Y Y P P P I D y c c s G Y c j J Y c $ : - $ 0 G A A J c i A P l j v a Z Y U P P U K v x a 1 ",
"= u E U L L Y Y I P U U L S S L I G D Y Y w O G C t 3 G F N I G A K P F S L L L P P P L P G G E z = ",
"= i ! Y P Y Y W E R E W E ! ~ I P ! ~ W R N $ 3 0 ; i E P F R ! ~ R Y ! E E E E Y E E E P L L W b = ",
"= j ! Y Y R A s u u i i u u u u w i j j u w 0 - 2 2 w s y 0 i i s s u u u i i i s u i V Y Y P ! n = ",
"= i W P P b # . .   X # # o X X X O # o   o @ @ * * o X o . o & O . . X o O @ X o .   o v R Y ! b = ",
"= s R K V O   4 c c n x x Z Z C D n w j b n n N j s C C n C n a v N j v C x y v x s 0   X N Y ! b - ",
", u I Y k   # j Z ! Z X . L ` ^ ] y . 7 _ / ) D @   A ' E ' c   1 ~ I R R %   n E D Z =   w Y ! m = ",
"= i E P g X o u v U 7 1 - y ` / L & t * A W _ s * 1 4 E W I - r # A ~ / c , 5 , P D C &   w I ! b - ",
"= j W K k o   2 N j X { { . S ` y 1  .t - ~ D . ^ | X b _ t % ..c $ E R @ !  .. u I s   X e P ^ n = ",
"= l ! K g + # # % . n ' ) C o 1 & ^ { ^ * = O s ` [ D o - o I ) ` 1 = * s Y _ U   = % @ o w I ^ m = ",
"= s / Y w o Q { Y / } o o { Q L ] L   D } U Q | 1   { ) L ' W . c } U Y } *   ' ` I ` ! @ 4 I ! n = ",
"= s E E u = ' n c c o     o c n 7       7 n c &       s n y       , n c *       s c s ! 4 4 P ! m = ",
": s E Y g 7 U                                                                       . n a 2 I ! b = ",
"= j ! W u 5 Y                                                                         Z y 4 Y ! b : ",
"= j / W i 1 U .                                                                       Z y 4 E ( b = ",
"= i Y Y i 1 Y .                                                                       Z p 4 P Q v = ",
"= u I J 9 4 Y                                                                         Z a > J Q l = ",
": e W K d 6 Y .                                                                       Z y 2 J ! z = ",
"< u E R i 6 U .                                                                       Z y 4 I ! v : ",
"= i W R g 6 P .                                                                       Z y w E ^ n = ",
"= g W W j 6 U .                                                                       Z y 0 R ^ B = ",
"= u E I u 4 Y .                                                                       Z y 0 Y ! v = ",
": 8 K K e 7 Y .                                                                       Z p > R _ e : ",
"3 8 G T q 7 U .                                                                       Z a ; F / 9 : ",
"< u F F i 6 U .                                                                       Z a > M A l 1 ",
"< l ! W l 3 U .                                                                       Z p 8 K W m = ",
"< g ~ W k 3 U .                                                                       Z y 0 R ^ v = ",
"= l ! E j 6 U .                                                                       Z a w R ! b = ",
"< k ! I j 4 Y                                                                         Z y w E ^ n = ",
"< l ! I j 1 Y .                                                                       Z y 0 Y ^ N = ",
"= l ! E k 6 U .                                                                       Z y 0 Y ! N = ",
"= j ! E z 4 L .                                                                       Z y 0 R ^ b = ",
"< j ! E k 7 Y .                                                                       Z y 8 K ^ b = ",
"< j W E h 1 Y X                                                                       Z a 0 K ! v = ",
"= j ! Y g 4 Y .                                                                       Z y 0 F I z = ",
", j ! Y j 7 Y                                                                         Z a 8 G K c : ",
"= j ! Y g 1 Y .                                                                       Z a 8 H I z = ",
", j ^ E j 6 U .                                                                       Z y 0 P T z = ",
"= j E R j 4 U                                                                         Z p 0 K R z = ",
"1 i R Y j 3 U .                                                                       Z a 0 K I k < ",
"< j ! R d 6 I .                                                                       Z y 0 I W v = ",
"= e R R f 6 Y .                                                                       Z y 4 Y ( m = ",
"= j W T s r U .                                                                       Z y 0 Y ^ b = ",
"= l W Y s 4 I .                                                                       Z p 8 R ^ n = ",
"= l W W j 1 Y .                                                                       Z y 0 W ( N = ",
"$ u P J e 1 Y                                                                         Z 7 3 J I z & ",
"l : 0 4 % n G                                                                         n D = 4 0 > a "
};
