/* XPM */
static char *result[] = {
/* columns rows colors chars-per-pixel */
"50 50 163 2 ",
"   c #000001",
".  c #0C0101",
"X  c #0B0906",
"o  c #040609",
"O  c #070809",
"+  c #0C0C0C",
"@  c #100000",
"#  c #130E0B",
"$  c #13110E",
"%  c #19140F",
"&  c #010811",
"*  c #0E0F10",
"=  c #141414",
"-  c #191613",
";  c #1A1916",
":  c #171819",
">  c #1B1B1A",
",  c #2C0000",
"<  c #300000",
"1  c #3B0000",
"2  c #231C15",
"3  c #221F1C",
"4  c #2A2117",
"5  c #24211D",
"6  c #2B231B",
"7  c #30261D",
"8  c #34291F",
"9  c #382D1F",
"0  c #252525",
"q  c #292724",
"w  c #2B2926",
"e  c #2B2B2B",
"r  c #3A2F22",
"t  c #302C29",
"y  c #352C22",
"u  c #3D3123",
"i  c #35322E",
"p  c #3E332A",
"a  c #2F3030",
"s  c #353535",
"d  c #3A3735",
"f  c #3B3833",
"g  c #3B3B3B",
"h  c #4A0000",
"j  c #5E0000",
"k  c #620000",
"l  c #6B0000",
"z  c #6B100B",
"x  c #601C15",
"c  c #423426",
"v  c #443729",
"b  c #473B2C",
"n  c #4B3C2C",
"m  c #403C36",
"M  c #493D30",
"N  c #413D3C",
"B  c #4F402F",
"V  c #52412F",
"C  c #45423D",
"Z  c #4B453E",
"A  c #534231",
"S  c #5A4733",
"D  c #5C4936",
"F  c #564739",
"G  c #594738",
"H  c #564D3A",
"J  c #5C4C3C",
"K  c #5C503C",
"L  c #634F3A",
"P  c #6A533D",
"I  c #64513C",
"U  c #444444",
"Y  c #4F4942",
"T  c #4B4B4B",
"R  c #534D44",
"E  c #5B5145",
"W  c #575149",
"Q  c #59544B",
"!  c #545454",
"~  c gray37",
"^  c #665342",
"/  c #6A5643",
"(  c #745C44",
")  c #625C53",
"_  c #70604F",
"`  c #7C644C",
"'  c #656157",
"]  c #666158",
"[  c #6A645A",
"{  c #6F695F",
"}  c #776556",
"|  c #7E6651",
" . c #70695F",
".. c #7B6A58",
"X. c #656565",
"o. c #6B6B6B",
"O. c #746D62",
"+. c #7C7368",
"@. c #727272",
"#. c #7C7C7C",
"$. c #8E0000",
"%. c #9A0000",
"&. c #B40000",
"*. c #8A2B1F",
"=. c #953123",
"-. c #83674E",
";. c #856A4F",
":. c #886C4F",
">. c #846C53",
",. c #896E52",
"<. c #846D5A",
"1. c #877557",
"2. c #8C7255",
"3. c #8C735B",
"4. c #917456",
"5. c #93775B",
"6. c #957A5B",
"7. c #9C7D5D",
"8. c #A17F5E",
"9. c #8A7461",
"0. c #817A6E",
"q. c #947C62",
"w. c #9B7F64",
"e. c #957F69",
"r. c #887F73",
"t. c #9B846E",
"y. c #8A8075",
"u. c #8F8579",
"i. c #998772",
"p. c #A48462",
"a. c #AA8764",
"s. c #AF8C67",
"d. c #A4876D",
"f. c #A68A6C",
"g. c #AC8D6D",
"h. c #A38C75",
"j. c #AB8E72",
"k. c #AE9074",
"l. c #B59779",
"z. c #BD9D7D",
"x. c #828282",
"c. c #8D8D8D",
"v. c #C2A181",
"b. c #CAA781",
"n. c #CFAC8C",
"m. c #D1AC84",
"M. c #DAB48A",
"N. c #DEB994",
"B. c #F4CBA2",
"V. c #F8CCA4",
"C. c #FFDDAF",
"Z. c #FFE1AC",
"A. c #FFE4B2",
"S. c #FFEEB6",
"D. c #FFE9BB",
"F. c #FFF2B7",
"G. c #FFF4BA",
"H. c #FFFCBF",
"J. c #FFF2C2",
"K. c #FFFCCA",
"L. c #FFFFD2",
"P. c #FFFFD9",
"I. c None",
/* pixels */
"I.I.I.I.I.I.I.I.I.I.I.I.I.I.I.I.I.I.I.I.r.Y t q q w w w w e t R I.I.I.I.I.I.I.I.I.I.I.I.I.I.I.I.I.I.",
"I.I.I.I.I.I.I.I.I.I.I.I.I.I.I.I.I.I.I.I.f   : : : : : : : : = o m I.I.I.I.I.I.I.I.I.I.I.I.I.I.I.I.I.",
"I.I.I.I.I.I.I.I.I.I.I.I.I.I.I.I.I.I.I.I.0 + e 0 0 e 0 0 0 e w * 5 I.I.I.I.I.I.I.I.I.I.I.I.I.I.I.I.I.",
"I.I.I.I.I.I.I.I.I.I.I.I.I.I.I.I.I.I.I.I.: * e 0 0 0 0 0 0 0 0 * 0 I.I.I.I.I.I.I.I.I.I.I.I.I.I.I.I.I.",
"I.I.I.I.I.I.I.I.I.I.I.I.I.I.I.I.I.I.I.I.= = e 0 0 0 0 0 0 e e * 0 I.I.I.I.I.I.I.I.I.I.I.I.I.I.I.I.I.",
"I.I.I.I.I.I.I.I.I.I.I.I.I.I.I.I.I.I.I.I.= * e 0 0 0 0 0 0 0 0 * 5 I.I.I.I.I.I.I.I.I.I.I.I.I.I.I.I.I.",
"I.I.I.I.I.I.I.I.I.I.I.I.I.I.I.I.I.I.I.I.- = 0 0 e 0 0 0 0 0 e * 5 I.I.I.I.I.I.I.I.I.I.I.I.I.I.I.I.I.",
"I.I.I.I.I.I.I.I.I.I.I.I.I.I.I.I.I.I.I.I.3 = a e e e e e e e a = > I.I.I.I.I.I.I.I.I.I.I.I.I.I.I.I.I.",
"I.I.I.I.I.I.I.I.I.I.I.I.I.I.I.I.I.I.I.I.5 O > : : : > 3 > 3 3 & ; I.I.I.I.I.I.I.I.I.I.I.I.I.I.I.I.I.",
"I.I.I.I.I.I.I.I.I.I.I.I.I.I.I.I.I.I.I.I.0             o o   o   - I.I.I.I.I.I.I.I.I.I.I.I.I.I.I.I.I.",
"I.I.I.I.I.I.I.I.I.I.I.I.I.I.I.I.I.I.I.I.q   . @ . @ @ . @ . .   ; I.I.I.I.I.I.I.I.I.I.I.I.I.I.I.I.I.",
"I.I.I.I.I.I.I.I.I.I.I.I.I.I.I.I.I.I.I.I.w , l k k k k k k k l 1 # I.I.I.I.I.I.I.I.I.I.I.I.I.I.I.I.I.",
"I.I.I.I.I.I.I.I.I.I.I.I.I.I.I.I.I.I.I.I.* j &.%.$.$.$.$.$.$.%.k . C I.I.I.I.I.I.I.I.I.I.I.I.I.I.I.I.",
"I.I.I.I.I.I.I.I.I.I.I.I.I.I.I.I.I.I.g     , h z =.*.*.*.*.*.=.x     I.I.I.I.I.I.I.I.I.I.I.I.I.I.I.I.",
"I.I.I.I.I.I.I.I.I.I.I.I.I.I.I.I.I.R L J 6 + ; H 6.1.1.1.1.1.q.K o 3 ^ E I.I.I.I.I.I.I.I.I.I.I.I.I.I.",
"I.I.I.I.I.I.I.I.I.I.I.I.I.I.I.I.  c B.P.1.u p.2.>.1.1.,.2.2.6.S   i.C.b   q C I.I.I.I.I.I.I.I.I.I.I.",
"I.I.I.I.I.I.I.I.I.I.I.I.I.I...>.,.M f.L.>.u 6.2.,.,.,.,.:.:.6.S   h.z.b <.5.c e I.I.I.I.I.I.I.I.I.I.",
"I.I.I.I.I.I.I.I.I.I.I.I.I.I.f.F.G.>.3.K.>.r 4.,.:.,.:.:.,.,.6.S   i.j.<.J.K.q.  I.I.I.I.I.I.I.I.I.I.",
"I.I.I.I.I.I.I.I.I.I.I.I.I.: ,.S.A.>.5.K.>.c w.4.4.2.,.2.4.4.8.S   t.j.<.D.K.q.  I.I.I.I.I.I.I.I.I.I.",
"I.I.I.I.I.I.I.I.I.I.I.I.w   ,.S.Z.,.9.K.<.4 P G P ( ( ( P S P n o t.j.>.A.J.9.  I.I.I.I.I.I.I.I.I.I.",
"I.I.I.I.I.I.I.I.I.I.I.t     3.S.Z.-.q.P.e.  J p.5.2.2.<.,.5.j.} & h.l.G b.M./ o I.I.I.I.I.I.I.I.I.I.",
"I.I.I.I.I.I.I.I.I.I.I.;     3.S.Z.>.` V.} o <.B.v.j.j.j.z.N.V.3.o <.3.y -.4.v X I.I.I.I.I.I.I.I.I.I.",
"I.I.I.I.I.I.I.I.I.I.I.-     6.K.F.t.b ,.p   b 3.| | | -.| ` <.M   v A v 4.7.b X I.I.I.I.I.I.I.I.I.I.",
"I.I.I.I.I.I.I.I.I.I.I.-     / M.m./ n p.u   y ,.,.,.:.,.,.:.7.V   c L v 4.6.n   I.I.I.I.I.I.I.I.I.I.",
"I.I.I.I.I.I.I.I.I.I.I.-     G l.j.F n a.b     A 5.,.,.,.:.4.( 2   b L v 4.7.b   I.I.I.I.I.I.I.I.I.I.",
"I.I.I.I.I.I.I.I.I.I.I.=     q.K.J.w.A 5.r     v 7.,.,.,.,.6.b     v D V a.s.A O I.I.I.I.I.I.I.I.I.I.",
"I.I.I.I.I.I.I.I.I.I.R       3.J.D.q.D L X     n 8.,.,.,.,.6.n     2 6 2 n A 2 + I.I.I.I.I.I.I.I.I.I.",
"I.I.I.I.I.I.I.I.I.W +       j.K.K.w.D v       6 -.4.,.,.,.p.A         # 2 4 X # I.I.I.I.I.I.I.I.I.I.",
"I.I.I.I.I.I.I.I.i         - f.n.n.<.D c         n p.,.,.4.` 2         S 8.p.B X I.I.I.I.I.I.I.I.I.I.",
"I.I.I.I.I.I.I.I.=         2 J i d G n 2         2 ` 4.:.p.A           A 6.w.n X I.I.I.I.I.I.I.I.I.I.",
"I.I.I.I.I.I.I.r.X         $ y g s u %             b p.6.-.4           V 4.7.b   I.I.I.I.I.I.I.I.I.I.",
"I.I.I.I.I.I.I.0.X         # w C a # .             2 ,.7.8             A 4.7.b   I.I.I.I.I.I.I.I.I.I.",
"I.I.I.I.I.I.I.I.X         X 2 N e                   7 n               D p.s.V X I.I.I.I.I.I.I.I.I.I.",
"I.I.I.I.I.I.I.I.=           + g e                                     8 L I 4 = I.I.I.I.I.I.I.I.I.I.",
"I.I.I.I.I.I.I.I.-           = g e                                             0 I.I.I.I.I.I.I.I.I.I.",
"I.I.I.I.I.I.I.I.=           = U 0 X > *                           = >         f I.I.I.I.I.I.I.I.I.I.",
"I.I.I.I.I.I.I.I.=           + g = : o.s                           N @.:     + O.I.I.I.I.I.I.I.I.I.I.",
"I.I.I.I.I.I.I.I.$           X > X 0 #.U                           U c.s     Y I.I.I.I.I.I.I.I.I.I.I.",
"I.I.I.I.I.I.I.I.+         $ X     a x.N                           T #.s   > I.I.I.I.I.I.I.I.I.I.I.I.",
"I.I.I.I.I.I.I.I.X       X Z Q :   e #.X.e ; > 0 =       X * + X 0 X.#.e   R I.I.I.I.I.I.I.I.I.I.I.I.",
"I.I.I.I.I.I.I.I.=       $ I.I.u.= 0 @.x.@.o.o.@.U     X s ~ ! ! ~ #.@.0 q I.I.I.I.I.I.I.I.I.I.I.I.I.",
"I.I.I.I.I.I.I.I.3       : I.I.I.R s @.x.x.#.x.c.! X     ! c.x.x.x.x.@.g Q I.I.I.I.I.I.I.I.I.I.I.I.I.",
"I.I.I.I.I.I.I.I.0       > I.I.I.) s X.@.@.@.@.#.T o     T #.@.@.@.@.X.N I.I.I.I.I.I.I.I.I.I.I.I.I.I.",
"I.I.I.I.I.I.I.I.5       ; I.I.I.R : N T U U U T a       e T U T U T g e I.I.I.I.I.I.I.I.I.I.I.I.I.I.",
"I.I.I.I.I.I.I.I.>       3 I.I.I.Y = e g s g s g 0 X X o 3 g g s s g e 0 I.I.I.I.I.I.I.I.I.I.I.I.I.I.",
"I.I.I.I.I.I.I.I.;       q I.I.I. .# + : : : > :   : Q 0   : : : : : O e I.I.I.I.I.I.I.I.I.I.I.I.I.I.",
"I.I.I.I.I.I.I.I.t       Z I.I.I.I.C +   o     X > Q I.I.w X   X X X ; ) I.I.I.I.I.I.I.I.I.I.I.I.I.I.",
"I.I.I.I.I.I.I.I.{ +   i I.I.I.I.I.I.I.{ ' ] ' O.I.I.I.I.I.+.] ' ] I.I.I.I.I.I.I.I.I.I.I.I.I.I.I.I.I.",
"I.I.I.I.I.I.I.I.I.> - I.I.I.I.I.I.I.I.I.I.I.I.I.I.I.I.I.I.I.I.I.I.I.I.I.I.I.I.I.I.I.I.I.I.I.I.I.I.I.",
"I.I.I.I.I.I.I.I.I.I.O.I.I.I.I.I.I.I.I.I.I.I.I.I.I.I.I.I.I.I.I.I.I.I.I.I.I.I.I.I.I.I.I.I.I.I.I.I.I.I."
};
