/* XPM */
static char *_5f523f3d0664533d66f4bd2accc8f762VbDfY2immp6T3qu[] = {
/* columns rows colors chars-per-pixel */
"50 50 163 2 ",
"   c None",
".  c #000000",
"X  c #080605",
"o  c #070807",
"O  c #090807",
"+  c #01040C",
"@  c #06080A",
"#  c #0B0B0A",
"$  c #1E0000",
"%  c #120D0A",
"&  c #12110F",
"*  c #1A140E",
"=  c #0E0F10",
"-  c #0F1010",
";  c #131313",
":  c #1B1713",
">  c #1B1916",
",  c #151518",
"<  c #1C1B1A",
"1  c #151A16",
"2  c #240000",
"3  c #290000",
"4  c #27130E",
"5  c #241D15",
"6  c #211F1D",
"7  c #24211C",
"8  c #2B2219",
"9  c #242A1F",
"0  c #30261D",
"q  c #3A271F",
"w  c #33291F",
"e  c #1F1F20",
"r  c #1F2223",
"t  c #252524",
"y  c #252B20",
"u  c #2D2A24",
"i  c #2B2A2A",
"p  c #332B23",
"a  c #382E23",
"s  c #302E29",
"d  c #2E3226",
"f  c #303427",
"g  c #3D3225",
"h  c #34322D",
"j  c #38342D",
"k  c #343332",
"l  c #393632",
"z  c #3D3933",
"x  c #3C3C3C",
"c  c #5C0000",
"v  c #45130E",
"b  c #6C0000",
"n  c #780000",
"m  c #4F2A1F",
"M  c #423527",
"N  c #44372A",
"B  c #4B3D2E",
"V  c #463A2D",
"C  c #423D37",
"Z  c #413F38",
"A  c #6D3C2F",
"S  c #52402E",
"D  c #45423B",
"F  c #4A453E",
"G  c #534433",
"H  c #5D4A37",
"J  c #5E4B39",
"K  c #5B4734",
"L  c #614B36",
"P  c #624E3A",
"I  c #63503E",
"U  c #6D543E",
"Y  c #454545",
"T  c #484642",
"R  c #4E4A43",
"E  c #4C4C4C",
"W  c #534E46",
"Q  c #53524B",
"!  c #5A554D",
"~  c #5E584F",
"^  c #535353",
"/  c #5F5950",
"(  c #5B5B5B",
")  c #6E5741",
"_  c #6F5942",
"`  c #645749",
"'  c #6F5B49",
"]  c #725B44",
"[  c #785F46",
"{  c #725F4C",
"}  c #615B52",
"|  c #615C59",
" . c #776048",
".. c #7D644B",
"X. c #636158",
"o. c #696359",
"O. c #776757",
"+. c #7E6751",
"@. c #70695F",
"#. c #7D6D5C",
"$. c #636363",
"%. c #676768",
"&. c #6B6B6C",
"*. c #746D63",
"=. c #786F65",
"-. c #7B7268",
";. c #747474",
":. c #7C7C7D",
">. c #820000",
",. c #950000",
"<. c #9B0000",
"1. c #8F4D38",
"2. c #844634",
"3. c #914F3B",
"4. c #95523C",
"5. c #9A553E",
"6. c #81664D",
"7. c #856A4E",
"8. c #846A52",
"9. c #8A6D51",
"0. c #8E7154",
"q. c #927557",
"w. c #947659",
"e. c #97795A",
"r. c #9C7D5E",
"t. c #827361",
"y. c #967C60",
"u. c #9C7F65",
"i. c #857C71",
"p. c #898073",
"a. c #8E8478",
"s. c #AA8766",
"d. c #A98967",
"f. c #A28569",
"g. c #AA8C6F",
"h. c #A58565",
"j. c #AF9275",
"k. c #AF9378",
"l. c #B29375",
"z. c #BA9775",
"x. c #BD9875",
"c. c #B3967B",
"v. c #B5987D",
"b. c #BA9B7C",
"n. c #C39F7B",
"m. c #C6A37E",
"M. c #818182",
"N. c #8C8C8D",
"B. c #BC9E80",
"V. c #CBA781",
"C. c #CFA983",
"Z. c #C7A98A",
"A. c #CCAB89",
"S. c #D0AC87",
"D. c #D8B38F",
"F. c #DDB690",
"G. c #E3BC96",
"H. c #EDC59D",
"J. c #FFD6AA",
"K. c #FFE3B4",
"L. c #FFE7BA",
"P. c #FFEDBD",
"I. c #FFF4C2",
/* pixels */
"                                                                                                    ",
"                                                              F 6 t < > > < > > < 7 W               ",
"                                                            o.o + ; ; - ; ; = ; = o ,               ",
"                                                            F o r i i i i i i i i t <               ",
"                                                            D o e t t t i t t t t t 1               ",
"                                                            D O r i t i t t i i t e >               ",
"                                                            D @ e t t t t t t t i e ;               ",
"                                                            C # r i i t i i i t t r ;               ",
"                                                            Z @ t i t t i i t i i e ;               ",
"                                                            t . - ; ; ; ; ; ; ; , @ O }             ",
"                  R x k k k k k k k k k l t h R ! ^ ! Q Y 7 . . . . . . . . . . . . o o.            ",
"                -.% , t t t t t t t t r e G f.l.l.l.j.l.g.8.{ q $ 2 3 3 3 2 3 2 3 2 . X.            ",
"                =.@ o ; ; ; , , , , ; @ > b.I.I.P.P.P.P.L.H.Z.A b n n n n n n n n c X               ",
"                  l o . . . . @ # # # @ 1 r.A.V.V.m.V.m.m.f.+.v >.<.,.,.,.,.,.,.<.c % Q             ",
"                      D z 7 . . . . @ = < G 9.0.9.9.9.9.0...g 4 2.4.4.4.4.4.4.5.1.m 0 W             ",
"                            s . . . . # 1 f 7.q.9.9.9.9.w.7.* o 9 9 9 d d d d f u 1 : D             ",
"                              & . . . . . : K L K I ]  .6.U . . M K g . . . . . . : 7 F             ",
"                              *.T z s i t 7 u p p p 0 u w 5 . O 9.s.r.G . . . . O I B F             ",
"                                                        D 7 . X ..q.q.w.P K G . . ' V F             ",
"                                                          t . * ..q.8.8.q.r.q.S B w.V D             ",
"                                            u ; # # # # # . . 8 { 8.6.+.+.+.+.8.f.F.G z             ",
"            ~ ! ! ~ ~ ~ ~ } } }         F ; . . . . . . . . . N D.H.G.G.G.G.G.G.J.J.G C             ",
"        t # o o O @ O O @ O @ O # # o o . . . . . . . . . . . 7 O.t.#.#.#.#.#.#.=.` : z             ",
"      i.. . . . . . . . . . . . . . . . . . . . . . . . . . . . + + + + + + + + + + . j             ",
"        F t > < % . . . . . . . . . . . . . . . . . . . . . . a B.Z.v.c.c.c.v.B.Z.k.p u             ",
"                  W > . . . . . . . . . . . . . . . . . . . . g x.n.H.P.P.I.K.S.V.z.g j             ",
"                      F h t 6 7 < < < > O . . . . . . . . . . 5 P K b.K.K.L.J.8.] U : D             ",
"                                          t . . . . . . . . . 7 ..6.8.f.g.j.u.G ..6.5 D             ",
"                                            5 . . . . . . . . 7 6.0.P B M B a % ..7.5 z             ",
"                                            ~ . . . . . . . . 5 6.9.) ] B M 0 O ..7.5 s             ",
"                                              s . . . . . . . 8 6.9.] 9.[ G w % ..8.5 j             ",
"                                              o.o . . . . . . 5 8.9.U 9.q.[ a # ..7.5 l             ",
"                                                l . . . . o i p 7..._ 9.w.w.H %  .9.5 D             ",
"                                                *.o . . . & $.u 8 P g w g M 8 % 8.9.% z             ",
"                                                  7 . . . , %., . : G _ _ ] I G 6.0 . z             ",
"                                                  Z . . . ; $.; . . ] d.h.d.r.S 5 . . z             ",
"                                                  ! . . . , %., . o K 0.9.0.6.8 . . . z             ",
"                                                    O . . # E % . X L 0.0.0.6.5 . . . j             ",
"                                                    Z . . @ i @ . o P q.9.w...% . . . h             ",
"                                                      7 . X < o . . P q.q.e...X . . . D             ",
"                                                      =.@ @ E # . . G ..6.6.B . . . .               ",
"                                                        F # &.$.E z : 5 5 j | ^ t . j               ",
"                                                          6 %.N.N.( . . . < :.N.x ,                 ",
"                                                          z &.M.:.$.< . . t :.:.x j                 ",
"                                                          i $.;.;.&.( E Y ^ ;.&.l Z                 ",
"                                                        p.> l Y Y Y E ^ ^ E E x e z                 ",
"                                                        a., t k i k k i k i k i ; D                 ",
"                                                          Z = # - ; ; ; = ; ; @ @ o.                ",
"                                                            W j i i s u u t 7 u R                   ",
"                                                                                                    "
};
