/* XPM */
static char *_38cd09959eb4b2d85716d0d1da6035ePWo1aYvutS3xjnNA[] = {
/* columns rows colors chars-per-pixel */
"50 50 153 2 ",
"   c None",
".  c #000000",
"X  c #0B0403",
"o  c #0B0907",
"O  c #050A0A",
"+  c #0B0B0B",
"@  c #120202",
"#  c #110F0D",
"$  c #0B120D",
"%  c #15110C",
"&  c #0E0F11",
"*  c #0F1011",
"=  c #131313",
"-  c #141618",
";  c #1D1D1D",
":  c #240000",
">  c #3A0000",
",  c #231C14",
"<  c #201D1A",
"1  c #262017",
"2  c #24211D",
"3  c #2C231B",
"4  c #30261C",
"5  c #1E1F20",
"6  c #252525",
"7  c #2B2724",
"8  c #2D2A25",
"9  c #272728",
"0  c #272828",
"q  c #2A2A2A",
"w  c #342D25",
"e  c #3A2F23",
"r  c #302D2B",
"t  c #3D3124",
"y  c #35322D",
"u  c #3D342B",
"i  c #2F3030",
"p  c #353433",
"a  c #3A3732",
"s  c #3D3934",
"d  c #3A3A3A",
"f  c #440000",
"g  c #480000",
"h  c #6B0000",
"j  c #7C0000",
"k  c #423425",
"l  c #42372C",
"z  c #403A2A",
"x  c #4D3D2D",
"c  c #423D36",
"v  c #493D32",
"b  c #433F38",
"n  c #513F30",
"m  c #3D423D",
"M  c #4F402F",
"N  c #45413A",
"B  c #4A453E",
"V  c #524232",
"C  c #5E4C37",
"Z  c #5E4B39",
"A  c #614E3C",
"S  c #64503D",
"D  c #6B543E",
"F  c #72523D",
"G  c #3E4041",
"H  c #414141",
"J  c #4C4740",
"K  c #4D4942",
"L  c #484848",
"P  c #524D45",
"I  c #554F48",
"U  c #565149",
"Y  c #5A554C",
"T  c #5E584F",
"R  c #565656",
"E  c #5F5950",
"W  c #57585B",
"Q  c #5E5E5E",
"!  c #6B5642",
"~  c #6F5842",
"^  c #7B5741",
"/  c #735C45",
"(  c #7E5A43",
")  c #785F48",
"_  c #625C53",
"`  c #7C634A",
"'  c #676158",
"]  c #6B645B",
"[  c #7A6653",
"{  c #636363",
"}  c #6C6C6C",
"|  c #777065",
" . c #797266",
".. c #7C756A",
"X. c #727272",
"o. c #7B7A7B",
"O. c #840000",
"+. c #8A0000",
"@. c #910000",
"#. c #9C0000",
"$. c #960C05",
"%. c #97150C",
"&. c #99160D",
"*. c #9B180E",
"=. c #856147",
"-. c #80664C",
";. c #85694E",
":. c #90674D",
">. c #856C53",
",. c #8A6D51",
"<. c #837356",
"1. c #8D7154",
"2. c #87705A",
"3. c #8B735C",
"4. c #937557",
"5. c #947659",
"6. c #96795B",
"7. c #9A7B5C",
"8. c #837A6E",
"9. c #967D65",
"0. c #9D7E60",
"q. c #857C70",
"w. c #9C8066",
"e. c #8A8175",
"r. c #90877A",
"t. c #92897C",
"y. c #A28465",
"u. c #A4866A",
"i. c #A5896E",
"p. c #A98A6A",
"a. c #B08C68",
"s. c #B89676",
"d. c #BA9B7C",
"f. c #C59C75",
"g. c #C7A37F",
"h. c #828282",
"j. c #888888",
"k. c #C4A382",
"l. c #D1AD8A",
"z. c #D6B28C",
"x. c #D8B38D",
"c. c #DFBA95",
"v. c #E1BB96",
"b. c #E5BE98",
"n. c #EBC39C",
"m. c #EDC8A1",
"M. c #F4CAA1",
"N. c #F9CEA4",
"B. c #FDD2A7",
"V. c #FED4AA",
"C. c #FFD9AD",
"Z. c #FFDDB0",
"A. c #FFE2B4",
/* pixels */
"                                                                                                    ",
"                          a = + * + + = = + # = B                                                   ",
"                         .+ = 5 < ; 5 ; ; ; 5 = *                                                   ",
"                        _ o 5 q 0 q 0 0 0 0 q 5 o _                                                 ",
"                        U o 5 0 9 9 6 9 6 9 0 ; + T                                                 ",
"                        I + 6 0 6 6 9 9 6 6 0 ; + Y                                                 ",
"                        J & 6 6 9 9 9 9 9 9 7 ; + I                                                 ",
"                        B = 6 q 0 0 0 0 9 7 0 6 + J                                                 ",
"                        J + 5 6 6 6 6 6 6 6 0 5 + N                                                 ",
"                        K . . . . . . O O O O . . b                                                 ",
"                        I . . . . . . . . . . . . B                                                 ",
"                        U @ > g f f f f f f f > @ N                                                 ",
"                        K : O.#.@.+.O.+.+.+.@.j : H                                                 ",
"                        m X h +.O.%.*.%.%.%.$.O.: N                                                 ",
"                        b . X X @ F =.( F =.:.=., N                                                 ",
"                        a . z O . $ $ $ O $ <.<., N                                                 ",
"                        d + V % . . . . . o >.,., N                                                 ",
"                        B t t . . . + o # / 6.` , N                                                 ",
"                      ..2 t t . + n ` ` -.4.4.` , N                                                 ",
"          U N N B B N - . t ! / / -.,.1.,.` >./ , c                                                 ",
"        + . . . . . . . . V l.s.u.y.w.9.w.w.u.5.3 b                                                 ",
"      U . . . . . . . . . v b.m.c.v.v.c.v.b.m.l.u b                                                 ",
"      b . . . . . . . . . + 6 y a s a a d a a q + N                                                 ",
"      b . . . . . . . . . # r y 6 - - - - ; 9 6 . <                                                 ",
"      b . . . . . . . . . l v.n.2.[ 2.>.>.9.d.d.u . 6               Y _ I J J J J J J J P '         ",
"      B . . . . . . . . . 3 7.7.` M.A.C.V.n.z.d.3.V 3 u v v w 2 3 ; + 0 q q q i i q i q r 9 y       ",
"      _ . . . . . . . . . 1 / A 6.B.C.C.C.C.B.B.V.k.d.n.N.M.n.n.m.b.! ; 5 6 6 q q q q q i 5 + |     ",
"      q.= . . . . . . . . 3 ! A f.y.5.p.s.g.z.n.N.k.k.V.C.C.C.C.A.C.i.= O = = = - - - * - & - 8.    ",
"        I . . . . . . . . 3 / / a.1.` -.;.,.1.4.1.A / 4.5.4.4.5.6.6.C = + o O o X . . o = 6 I       ",
"          y . . . . . . . 3 ` D >.1.1.1.,.,.,.4./ 4 / 4.;.;.;.;.,.-.t = & . . . . . B               ",
"            2 . . . . . . 3 ` C C D ` ` ` -.-.;.A o ` 4.;.;.;.;.,.=.3 + O . . . . I                 ",
"            ] . . . . . . 3 ,.` S A M M M n M M 3 o 4 k k t k k l t # O . . . o y                   ",
"              6 . . . . . , ` 5.,.-.) ) ) ) ;.) 7 G + X r c s a y y s N P _ ] 8.                    ",
"              a . . . . . + % / 6.5.5.4.1.6.7.! < W * c                                             ",
"              s . . . . . . . # / -.` ,.1.;.~ o + Q - Y                                             ",
"              B . . . . . . . . o + , n ~ < X . = { % 6                                             ",
"              _ . . . . . . . . . . . . o . . . - { = . ; s c a c a a a a N N U ..                  ",
"              e.= . . . . . . . . . . . . . . . + L & . . . . . . . . . . . . . o r.                ",
"                U . . . . . . . . . . . . . . . . 6 o . . . . . . . . . . . . . o t.                ",
"                  c . . . . . . . . . . . . . . . ; . . . . . . . . . . . 8 N U                     ",
"                    y . . . . . + + + + + + o O q Q = . . . . . . . . o E                           ",
"                      8 . . . d } X.} } } } } } o.X.o . 2 N B B J N Y q.                            ",
"                        r . . H h.j.h.h.h.h.h.h.j.} . 2                                             ",
"                          a . d o.o.o.o.o.o.o.o.h.} o b                                             ",
"                            2 q { { { { { { { { } R . N                                             ",
"                            c ; p d d d d d d d G i . b                                             ",
"                            Y = ; 9 9 6 9 9 9 0 q 5 . I                                             ",
"                              0 + + + + + + + + $ . +                                               ",
"                                ] U U I P K B B B P                                                 ",
"                                                                                                    "
};
