/* XPM */
static char *_9c3ae74b3ad400cd647dedd9127c031Fi7cRRPoSZGkK3hO[] = {
/* columns rows colors chars-per-pixel */
"50 50 174 2 ",
"   c None",
".  c #000000",
"X  c #0D0404",
"o  c #050709",
"O  c #060A0A",
"+  c #0C0B0B",
"@  c #0E0A07",
"#  c #140000",
"$  c #130E0C",
"%  c #180E09",
"&  c #0C100D",
"*  c #13110E",
"=  c #1A150F",
"-  c #040A12",
";  c #0D0F10",
":  c #0E1214",
">  c #141313",
",  c #1B1611",
"<  c #1D1914",
"1  c #141619",
"2  c #16191B",
"3  c #1C1C1C",
"4  c #2A0000",
"5  c #270302",
"6  c #370000",
"7  c #3D0000",
"8  c #231D16",
"9  c #1F201D",
"0  c #292016",
"q  c #24211D",
"w  c #2C231A",
"e  c #30271E",
"r  c #252525",
"t  c #2D2A26",
"y  c #262728",
"u  c #2A2A2A",
"i  c #342C23",
"p  c #3A2E23",
"a  c #312E2A",
"s  c #3E3225",
"d  c #34312D",
"f  c #38342E",
"g  c #2E2F30",
"h  c #2F3330",
"j  c #343434",
"k  c #3A3632",
"l  c #3D3A33",
"z  c #363738",
"x  c #3C3C3C",
"c  c #420000",
"v  c #4B0000",
"b  c #650000",
"n  c #6F0907",
"m  c #740000",
"M  c #780F0C",
"N  c #770C0A",
"B  c #7E140F",
"V  c #7F1511",
"C  c #42382D",
"Z  c #493C2D",
"A  c #513E2B",
"S  c #423D36",
"D  c #493D30",
"F  c #433E38",
"G  c #3F403C",
"H  c #53402F",
"J  c #46413B",
"K  c #4B453E",
"L  c #534435",
"P  c #594736",
"I  c #5A4835",
"U  c #524838",
"Y  c #5C4A39",
"T  c #534639",
"R  c #634F3B",
"E  c #6A543F",
"W  c #66523B",
"Q  c #424242",
"!  c #4A4744",
"~  c #4D4A43",
"^  c #4C4C4C",
"/  c #534D46",
"(  c #594F45",
")  c #57524A",
"_  c #5C564C",
"`  c #525353",
"'  c #5F5A51",
"]  c #655443",
"[  c #6C5641",
"{  c #6C5844",
"}  c #6D5A48",
"|  c #64584D",
" . c #735B45",
".. c #725D49",
"X. c #625C53",
"o. c #685D51",
"O. c #6D614E",
"+. c #7C634B",
"@. c #666057",
"#. c #6E685F",
"$. c #746450",
"%. c #73685A",
"&. c #7F7058",
"*. c #646464",
"=. c #6B6B6B",
"-. c #746E64",
";. c #777066",
":. c #7A7166",
">. c #6F6F70",
",. c #767676",
"<. c #7A7B7B",
"1. c #8F0001",
"2. c #960101",
"3. c #80150F",
"4. c #841611",
"5. c #85694E",
"6. c #81674C",
"7. c #856D55",
"8. c #8A6D51",
"9. c #8E7154",
"0. c #8B725B",
"q. c #917356",
"w. c #97795B",
"e. c #997B5B",
"r. c #94765B",
"t. c #947A61",
"y. c #9A7E64",
"u. c #A17F61",
"i. c #9E846B",
"p. c #9B8064",
"a. c #A78868",
"s. c #AB8B6C",
"d. c #B08C68",
"f. c #B5916E",
"g. c #AB8E71",
"h. c #B08C70",
"j. c #B19171",
"k. c #B19478",
"l. c #B6987D",
"z. c #BD9B7B",
"x. c #C19E7D",
"c. c #C4A281",
"v. c #CAA886",
"b. c #C9A786",
"n. c #D3AE8C",
"m. c #D5B18E",
"M. c #D7B391",
"N. c #DEB793",
"B. c #DFB893",
"V. c #E4BC95",
"C. c #E5BE98",
"Z. c #E8C19A",
"A. c #F1C79E",
"S. c #F2C89F",
"D. c #E7C9A1",
"F. c #EBC6A3",
"G. c #F3CAA2",
"H. c #F6CFA9",
"J. c #EED8AB",
"K. c #F6D1A7",
"L. c #FDD3A9",
"P. c #FFDAAD",
"I. c #F5DAAE",
"U. c #FFDBB1",
"Y. c #F5E0B6",
"T. c #FFE2B5",
"R. c #FFE2B8",
"E. c #FFEDBD",
"W. c #FFF0BF",
"Q. c #FFF6C7",
"!. c #FFF3C2",
"~. c #FFF8C6",
"^. c #FFFECF",
"/. c #FFFCCC",
/* pixels */
"                                                                                                    ",
"                                                                      J                             ",
"                                                                    z 1 j                           ",
"                                                                  :.< r 3                           ",
"                                      q + : > * : > $ > + 3       X.* j 3                           ",
"                                    ) . 2 3 3 3 3 3 3 3 r O r     _ > j r                           ",
"                                    l + r u u u y u u y u 1 ,     ~ ; j <                           ",
"                                    k + r r r r r r r r t 1 >     a > j O                           ",
"                                    k + r r y r r y r r t < *   _ $ u Q o r                         ",
"                                    k + r t r y y y r r u 3 + J l . 2 g . 1                         ",
"                                    k + r y y y y y y y g 8 ; f a o > < . >                         ",
"                                    S O r r r r r r r r y 3 + a 3 w z.s.P < -.                      ",
"                                    K . o o O O O O O O O o o u > C T.!.x.q ;.                      ",
"                                    ~ . . . . . . . . . . . . t & C T.Q.b.q -.                      ",
"                                    ~ # 7 c c c c c c c v 6 # q & U P.E.x.8 ;.                      ",
"                                    h 4 1.2.1.1.1.1.1.1.2.m # o o } R.Q.b.q -.                      ",
"                                  J . 5 3.4.3.3.3.M N n b v X . o Y G.I.h.8 -.                      ",
"                              @.l = $ . X X X . . # % * % X . o * D y.g...> -.                      ",
"                            r * s.J.x.. . . . . : J O.O.7.T . ( N.c.F.I.a.. X.                      ",
"                          U e H m.^.C.. . o > L 7.t.p.p.g. .. o.L.V.!.^.l.o X.                      ",
"                        %.B.K.Z.v.R.m.. . < T { } } ] ] O.Z . | G.n.U.Q.k.. '                       ",
"                        C P.~.L.v.R.m.o . 8 w 0 8 < 8 8 8 , . | S.M.U.^.l.. _                       ",
"                      1 < S.T.Z.v.T.N.: k C.Z.N.B.B.B.B.D.k.- _ S.n.H.E.g.. _                       ",
"                    + . * a.f.s.m.W.Z.: K !.Q.E.E.E.E.E.^.C.- ] P.x.e.s.E . '                       ",
"                    . . * 6.8.5.c.U.m.: S G.L.G.G.G.S.G.T.v.- ) G.j.5.w.I . X.                      ",
"                  S . . * 5.8. .} y.$.o r t.t.0.0.0.0.0.e.] o i 7. .q.d.W . @.                      ",
"                  S . . * 8.q.E P +.L . @ +.9.+.+.+.+.q.[ . . 8  .Y 6.e.A .                         ",
"                  S . . * 8.e.+.I +.p . . 8 5.e.9.5.q.p.P . . 0 6.s = 8 = k                         ",
"                  F . . *  .9.E Y  .$ . . . 8 5.e.w.e.W o . . e  .@ . k                             ",
"                  t . . % +.8.E I [ . . . . . 8 5.8.P . . . . i [ @ _                               ",
"                / . . . 8 x.V.s.L E . . . . . . + @ . . . . . w A 3                                 ",
"              q . . . . = e.d. .C Y o . . . . . . . . . . . . X o a                                 ",
"            X.. . . . . $ +.9.[ w e . . . . . . . . . . . . . . . J                                 ",
"            ) . . . . . * 5.e...< . . . . . . . . . . . . . . . . '                                 ",
"            X.. . . . . * 8.u.5.= . . . . . . . . . . . . . . . . _                                 ",
"              > . . . . * +.9. ., . . . . . . . . . . . . . . . . d                                 ",
"              ) . . . . X 8 w 8 < ; . . . . . . . . . . . . . . + r                                 ",
"                < . . . . . . . r j . . . . . . . . . . . . . : ` x /                               ",
"                _ . . . . . . o z Q . . . . . . . . . . . . . < =.Q J                               ",
"                  t . . . . . + *.` . . . . . . . . . . . . . 3 ,.Q ~                               ",
"                    + . . . . + =.*.o . . . . . . . . . . . . u <.^ _                               ",
"                      < . . . + =.=.. . . . . . . . . . . . . z <.Q _                               ",
"                        / d . + >.,.u + + + + o . . . o o . + ` <.^ _                               ",
"                            S o ` ,.*.^ ^ ` Q + . . < z z j x *.>.J _                               ",
"                              1 y x G G G Q z + . . < x x x x Q j y )                               ",
"                              a 2 y u g u g r . . . ; g g u u u 3 9                                 ",
"                              / > > 2 > 2 2 1 + $ > ; < < 1 2 < ; l                                 ",
"                                -./ F F F K _         ~ ! J F K @.                                  ",
"                                                                                                    ",
"                                                                                                    "
};
