/* XPM */
static char *e5d6ae8f333f43c398e8fdaa3b4ba5e5iU0ufLrMuFfz6TwE[] = {
/* columns rows colors chars-per-pixel */
"50 50 106 2 ",
"   c #4E4A44",
".  c #464749",
"X  c #4B4B4A",
"o  c #555454",
"O  c #5B5A57",
"+  c #666563",
"@  c #686662",
"#  c #696864",
"$  c #676869",
"%  c #6B6B6B",
"&  c #73716D",
"*  c #7E766A",
"=  c #6F7174",
"-  c #767676",
";  c #76787C",
":  c #7C7C7C",
">  c #80796D",
",  c #897D6D",
"<  c #867F72",
"1  c #8C8375",
"2  c #908574",
"3  c #968C7C",
"4  c #998E7D",
"5  c #7B7D80",
"6  c #7F8387",
"7  c #828282",
"8  c #8A8885",
"9  c #888888",
"0  c #908980",
"q  c #9E9381",
"w  c #959595",
"e  c #929699",
"r  c #97999C",
"t  c #9A9A9A",
"y  c #A09483",
"u  c #A69A87",
"i  c #A69C8C",
"p  c #A89D8E",
"a  c #ACA08E",
"s  c #B2A48F",
"d  c #ADA292",
"f  c #B0A595",
"g  c #B5A996",
"h  c #B6AB9A",
"j  c #BAAE9C",
"k  c #BCB09F",
"l  c #A4A4A4",
"z  c #A5A6A8",
"x  c #A7A9AB",
"c  c #A9A9A9",
"v  c #BFB3A2",
"b  c #AEAFB1",
"n  c #AFB1B4",
"m  c #B2B2B3",
"M  c #B4B6B9",
"N  c #BBBBBB",
"B  c #C0B19C",
"V  c #C2B5A3",
"C  c #C4B8A5",
"Z  c #C7BBA9",
"A  c #CBBFAD",
"S  c #CFC3B0",
"D  c #D2C4B2",
"F  c #D7C9B6",
"G  c #D8CAB7",
"H  c #DACCB8",
"J  c #DED1BC",
"K  c #BDBFC2",
"L  c #BEC2C6",
"P  c #C3C3C3",
"I  c #CFCFCF",
"U  c #D2D2D2",
"Y  c #DBDCDC",
"T  c #E4D6C1",
"R  c #E7D9C3",
"E  c #EBDDC7",
"W  c #ECDEC8",
"Q  c #EEE1CA",
"!  c #F0E1C7",
"~  c #F3E4CD",
"^  c #F6E8CF",
"/  c #F9E8CE",
"(  c #F5E7D0",
")  c #F6E8D1",
"_  c #F8E9D1",
"`  c #FAEBD3",
"'  c #FCECD4",
"]  c #FFEFD6",
"[  c #FFF1D7",
"{  c #FFF3D8",
"}  c #FFF4DA",
"|  c #FFF7DC",
" . c #FFFADF",
".. c gray88",
"X. c #E6E6E6",
"o. c gray91",
"O. c #FFFBE0",
"+. c #FFFDE2",
"@. c #ECEEF1",
"#. c #EEF0F3",
"$. c gray95",
"%. c #F4F5F8",
"&. c #F5F7FA",
"*. c #FAFBFE",
"=. c #FBFDFF",
"-. c white",
/* pixels */
"E E E W E E E E E E E E E E E E E E E E E | C & 7 8 9 9 8 9 9 8 9 9 8 9 9 9 & j | ! E E E E E E E E ",
"E E E E E E E E E E E E E E E E E E E E | g - o.-.-.-.-.-.-.-.-.-.-.-.-.-.-.%.: a } E E E E E E E E ",
"E E E E E E E E E E E E E E E E E E W O.s - @.-.-.-.-.-.-.-.-.-.-.-.-.-.-.-.-.&.: u O.! E E E E E E ",
"E E E E E E E E E E E E E E E E E W { f : #.-.-.-.-.-.-.-.-.-.-.-.-.-.-.-.-.-.-.&.6 u [ Q E E E E E ",
"E E E E E E E E E E E E E E E E Q } u 7 &.-.-.-.-.-.-.-.-.-.-.-.-.-.-.-.-.-.-.-.-.=.8 q { ~ E E E E ",
"E E E W E W E E E E E E E E E Q { y 7 *.-.-.-.-.-.-.-.-.-.-.-.-.-.-.-.-.-.-.-.-.-.-.-.8 4 { ( E E E ",
"E E E E E E E E E E E W ~ ~ ~ ] d 9 -.-.-.-.-.-.-.-.-.-.-.-.-.-.-.-.-.-.-.-.-.-.-.-.-.-.w 3 W Q E E ",
"E E E E E E E E E E ( E F G T B : -.-.-.-.-.-.-.-.-.-.-.-.-.-.-.-.-.-.-.-.-.-.-.-.-.-.-.-.7 1 O.E E ",
"E E E E E E E E E ~ E j p d f , 8 -.-.-.-.-.-.-.-.-.-.-.-.-.-.-.-.-.-.-.-.-.-.-.-.-.-.-.-.L >  .E E ",
"E E W E E E E E ) R g u f d h 1 8 -.-.-.-.-.-.-.-.-.-.-.-.-.-.-.-.-.-.-.-.-.-.-.-.-.-.-.-.m 1 | E E ",
"E E E E E E E ) T f p f f f h 2 8 -.-.-.-.-.-.-.-.-.-.-.-.-.-.-.-.-.-.-.-.-.-.-.-.-.-.-.-.M < | E E ",
"E E E E E E ) J f p f f f f h 2 8 -.-.-.-.-.-.-.-.-.-.-.-.-.-.-.-.-.-.-.-.-.-.-.-.-.-.-.-.M 1 | E E ",
"E E E E E _ T d p f f f f f h 2 8 -.-.-.-.-.-.-.-.-.-.-.-.-.-.-.-.-.-.-.-.-.-.-.-.-.-.-.-.M 1 | E E ",
"E E E W ~ J d d f f f f f f h 1 8 -.-.-.-.-.-.-.-.-.-.-.-.-.-.-.-.-.-.-.-.-.-.-.-.-.-.-.-.M 1 } E E ",
"E E W ~ H p p f f f f f f f h 1 8 -.-.-.-.-.-.-.-.-.-.-.-.-.-.-.-.-.-.-.-.-.-.-.-.-.-.-.-.M 1 | E E ",
"E E W ~ V u f f f f f f f f h q # #.-.-.-.-.-.-.-.-.-.-.-.-.-.-.-.-.-.-.-.-.-.-.-.-.-.-.-.K < | E E ",
"W W W Q v p f f f f f f f f h y O z o.-.-.-.-.-.-.-.-.-.-.-.-.-.-.-.-.-.-.-.-.-.-.-.-.-.-.r < | E E ",
"E W W ( Z p f f f f f f f f h y # t t Y -.-.-.-.-.-.-.-.-.-.-.-.-.-.-.-.-.-.-.-.-.-.-.$.Y = 1  .E E ",
"E E W Q C p f f f f f f f f h y @ x l w Y -.-.-.-.-.-.-.-.-.-.-.-.-.-.-.-.-.-.-.-.-...m P 5 1  .E E ",
"E E W Q C p f f f f f f f f h y @ z c t w U -.-.-.-.-.-.-.-.-.-.-.-.-.-.-.-.-.-.&.I m m U 5 1 O.E E ",
"E E W Q C p f f f f f f f f h y @ z l l l w P -.-.-.-.-.-.-.-.-.-.-.-.-.-.=.-.X.N b N N U : 1 O.E E ",
"E E W Q v i f f f f f f f f h y @ z l l l t t m m m m m m m b m m m m m n n A N m N N N U 5 1  .E E ",
"E E W ( S p f f f f f f f f h y @ z z l l l c 8 - - - - - - - - - - - - - % r K N N N N I 5 1 O.E W ",
"E W W Q Q j p f f f f f f f h y @ z z l l l c t 7 7 9 9 9 9 9 8 9 9 9 9 9 7 l P N N N N I : 1 O.E E ",
"E E E E ( G p d f f f f f f h y @ z l l l l z t 7 9 9 9 9 9 9 9 9 9 9 9 9 5 l P N N N N I 5 1 | E E ",
"E E E W W ( v p f f f f f f h y @ z l l l l c t 9 9 9 9 9 9 9 9 9 9 9 9 9 7 l P N N N N I 5 1 O.E E ",
"E E E E R ( T d d f f f f d h y @ z l l l l c t 7 9 9 9 9 9 9 9 9 9 9 9 9 5 z P N N N N I 5 1 O.E E ",
"E E E E W E ( Z i f f f f f h y @ z l l l l c t 7 9 9 9 9 9 9 9 9 9 9 9 9 < z P N N N N I 5 1 O.E E ",
"E E E E E E ~ T d d f f f f h y @ z l z l l l t 7 9 9 9 9 9 9 9 9 9 9 9 9 7 l P N N N N I 5 1 O.E E ",
"E E E E E E W ( D i d f f f h y @ z l l l l c t 7 9 9 9 9 9 9 9 9 9 9 9 9 5 l P N N N N I 5 1 O.E E ",
"E E E E E E E Q W h d f f f h y @ z l l l l c t 9 9 9 9 9 9 9 9 9 9 9 9 9 7 l P N N N N I : 1 O.E E ",
"W E E E E W E W ^ G i d f f h q @ z l l z l c t 7 9 9 9 9 9 9 9 9 9 9 9 9 : l P N N N N U 5 1 O.E E ",
"E E E E E E E E W ( j p f f h q @ z l l l l c t 7 8 8 9 7 9 9 9 9 9 9 9 9 : l P N N N N I 5 1 O.E E ",
"E E E E E E E E R ( T p d f j q @ z z l l l z t 7 8 9 9 9 9 9 9 9 9 9 9 9 7 l P N N N N I 5 1  .E E ",
"E E E E E W E E E W ( V i f h q @ z l l l l z t 9 9 9 9 9 9 9 9 9 9 9 9 9 7 z P N N N N I 5 1  .W E ",
"E E E E E E E E E E ( T d d j q @ z z l l l c t 9 9 9 9 9 9 9 9 9 9 9 9 9 5 z P N N N N I 5 1 O.E E ",
"E E E E E E E E E E W ( A i h q @ l z l l l c t 7 9 9 9 9 9 9 9 9 9 9 9 9 5 l P N N N N I 5 1 O.E E ",
"E W E E E E E E E W W Q W h f q @ z l l l l c t 7 9 9 9 9 9 9 9 9 9 9 9 9 5 l P N N N N I 5 1 O.E E ",
"E E E E W E E E E E E W ( F d q @ z l l l l c t 7 9 9 9 9 9 9 9 9 9 9 9 9 5 l P N N N N U 5 1 O.E E ",
"E E E E E E E E E E E W W Q V 0 @ l l l l l c t 9 9 9 9 9 9 9 9 9 9 9 9 9 < l P N N N N U 5 < O.E E ",
"W E E E E E E E E E E E E ) T 3 + l l l l l z t 7 9 9 9 9 9 9 9 9 9 9 9 9 : l P N N N N I 5 < O.E E ",
"E E E E E E E E E E E E E W _ d O l z l l l c t 7 9 9 9 9 9 9 9 9 9 9 9 9 7 l P N N N N I : < O.E E ",
"E E E E E E E E W E E E E E ] A + x z l l l z t 7 9 9 9 9 9 9 9 9 9 9 9 9 7 l L N N N N U 5 1 O.E E ",
"E E E E E E E E E E E E E E W / 8 ; b z l l z t 9 9 9 9 9 9 9 9 9 9 9 9 9 5 l P N N N N Y 7 * O.E E ",
"E E E E E E E E E E E E E E E ) ! < - b z l z t 7 9 9 9 9 9 9 9 9 9 9 9 9 7 z P N N N U n . p | E E ",
"E E E E E E E E E E E E E E E E _ / 1 - c c c t 7 9 9 9 9 9 9 9 9 9 9 9 9 7 l P N P U 9 . i [ W E E ",
"E W E E E E E E E E E E E E E E R ) ] q % x b r 7 9 9 9 9 9 9 9 9 7 9 9 9 5 l P U K + O F O.W E E E ",
"E E E E E E E E E E E E E E E E E E ) { p $ x z 7 9 9 9 9 9 9 9 9 9 9 9 9 < z Y e X < ' } R E W E E ",
"E E E E E E E E E E E E E E E E E E E ~ { f $ t t r t t t t r r t t t t t r n :   V O.~ E E E E E E ",
"E E E E E E W E E E E E E E E E E W E E W | V + + + + + + + + + + + + $ $ + o * W O.E E E E E E E E "
};
