/* XPM */
static char *result[] = {
/* columns rows colors chars-per-pixel */
"50 50 167 2 ",
"   c #0C0C0D",
".  c #11110F",
"X  c #0F1012",
"o  c #141414",
"O  c #181717",
"+  c #171819",
"@  c #1A1B1B",
"#  c #181818",
"$  c #3D0200",
"%  c #211F1D",
"&  c #381D11",
"*  c #21201F",
"=  c #36231B",
"-  c #1F2023",
";  c #252424",
":  c #2A2723",
">  c #2C2926",
",  c #262729",
"<  c #2B2B2C",
"1  c #2E2E30",
"2  c #333435",
"3  c #3B3734",
"4  c #3F3B37",
"5  c #343639",
"6  c #30383B",
"7  c #3A3B3E",
"8  c #470100",
"9  c #490000",
"0  c #421F12",
"q  c #40281F",
"w  c #413D37",
"e  c #4A453E",
"r  c #45413A",
"t  c #7D4B39",
"y  c #3C3E41",
"u  c #3A4347",
"i  c #434445",
"p  c #464748",
"a  c #474849",
"s  c #4B4B4C",
"d  c #4E4842",
"f  c #534D43",
"g  c #525048",
"h  c #5A544B",
"j  c #5E584E",
"k  c #4F5955",
"l  c #4F5752",
"z  c #565656",
"x  c #5B5B5B",
"c  c #57585A",
"v  c #7D5040",
"b  c #7A5A4D",
"n  c #655F55",
"m  c #795D53",
"M  c #6C655A",
"N  c #6F685D",
"B  c #7D6255",
"V  c #7B665D",
"C  c #71685C",
"Z  c #646464",
"A  c #6C6D6D",
"S  c #766E63",
"D  c #796F65",
"F  c #7E766A",
"G  c #7A736A",
"H  c #757575",
"J  c #787777",
"K  c #757778",
"L  c #767A7C",
"P  c #7B7B7B",
"I  c #871F00",
"U  c #891F00",
"Y  c #862401",
"T  c #8B2200",
"R  c #862A05",
"E  c #8A2903",
"W  c #862E0D",
"Q  c #922300",
"!  c #9C2300",
"~  c #902B02",
"^  c #9C2A00",
"/  c #83381B",
"(  c #973A18",
")  c #AC2600",
"_  c #AC2B00",
"`  c #A02500",
"'  c #BE2B00",
"]  c #A83404",
"[  c #C12C00",
"{  c #CE2D00",
"}  c #C03100",
"|  c #CE3100",
" . c #C93B00",
".. c #EC3300",
"X. c #EB3900",
"o. c #B7471D",
"O. c #86442B",
"+. c #824E3A",
"@. c #8A4930",
"#. c #905137",
"$. c #BA4E25",
"%. c #A24F31",
"&. c #A25437",
"*. c #E25E2D",
"=. c #865745",
"-. c #945741",
";. c #846152",
":. c #B66040",
">. c #816D64",
",. c #8B7368",
"<. c #9A7566",
"1. c #8A7B75",
"2. c #857D76",
"3. c #977F76",
"4. c #C26341",
"5. c #DE754E",
"6. c #85817F",
"7. c #968C7D",
"8. c #AE8574",
"9. c #B88B78",
"0. c #7D7F80",
"q. c #807F80",
"w. c #7D8284",
"e. c #848484",
"r. c #868788",
"t. c #858A8B",
"y. c #8B8B8B",
"u. c #908E8C",
"i. c #868E92",
"p. c #908F90",
"a. c #8E979A",
"s. c #939393",
"d. c #92999C",
"f. c #9B9B9A",
"g. c #A6938C",
"h. c #AA948C",
"j. c #ADA293",
"k. c #B1A595",
"l. c #B5AA99",
"z. c #BCB09F",
"x. c #A4A4A4",
"c. c #A7A7A8",
"v. c #A4A9AB",
"b. c #ACABAC",
"n. c #B0B0AF",
"m. c #A2ACB0",
"M. c #AEB9BD",
"N. c #AFB3B5",
"B. c #B2B1B2",
"V. c gray73",
"C. c #D3A08C",
"Z. c #C2B6A5",
"A. c #C5B9A7",
"S. c #C5B9A8",
"D. c #CABCAA",
"F. c #CEB5AB",
"G. c #CDC1AE",
"H. c #CFC3B0",
"J. c #D4C6B2",
"K. c #D8CAB7",
"L. c #D9CCB8",
"P. c #DED0BB",
"I. c #C3C3C4",
"U. c #CBCCCC",
"Y. c #C9CFD2",
"T. c #CFD0D0",
"R. c None",
/* pixels */
"R.R.R.R.R.R.R.R.R.R.R.R.R.R.R.R.R.R.R.R.R.R.R.R.R.R.R.R.R.R.R.R.R.R.R.R.R.R.R.R.R.R.R.R.R.R.R.R.R.R.",
"R.R.R.R.R.R.R.R.R.R.R.R.R.R.R.R.R.R.R.R.R.R.R.R.R.R.R.R.R.R.R.R.R.R.R.R.R.R.R.R.R.R.R.R.R.R.R.R.R.R.",
"R.R.R.R.R.R.R.R.R.R.R.R.R.R.R.R.R.R.R.R.R.R.R.R.R.R.R.R.R.R.R.R.R.R.R.R.R.R.R.R.R.R.R.R.R.R.R.R.R.R.",
"R.R.R.R.R.R.R.R.R.R.R.R.R.R.R.R.R.R.R.R.R.R.R.R.R.R.R.R.R.R.R.R.R.R.R.R.R.R.R.R.R.R.R.R.R.R.R.R.R.R.",
"R.R.R.R.R.R.R.R.R.R.R.R.R.R.R.R.R.R.R.R.R.R.R.R.R.R.R.R.R.R.R.R.R.R.R.R.R.R.R.R.R.R.R.R.R.R.R.R.R.R.",
"R.R.R.R.R.R.R.R.R.R.R.R.R.R.R.R.R.R.R.R.d O O ; , , > > # : h R.R.R.R.R.R.R.R.R.R.R.R.R.R.R.R.R.R.R.",
"R.R.R.R.R.R.R.R.R.R.R.R.R.R.R.R.R.R.* O > 2 i p i i i i i 2 , O ; R.R.R.R.R.R.R.R.R.R.R.R.R.R.R.R.R.",
"R.R.R.R.R.R.R.R.R.R.R.R.R.R.R.R.> @ 2 i z z x x x x x x x c z i 1 . > R.R.R.R.R.R.R.R.R.R.R.R.R.R.R.",
"R.R.R.R.R.R.R.R.R.R.R.R.R.R.R.O ; s c M x x z z z z z z x z x x x a - . R.R.R.R.R.R.R.R.R.R.R.R.R.R.",
"R.R.R.R.R.R.R.R.R.R.R.R.R.R.  , z x c z z z z z z z z z z z z z c x z ,   R.R.R.R.R.R.R.R.R.R.R.R.R.",
"R.R.R.R.R.R.R.R.R.R.R.R.R.4 o x c c z z z z z z z z z z z z z z z z x n O w R.R.R.R.R.R.R.R.R.R.R.R.",
"R.R.R.R.R.R.R.R.R.R.R.R.7.  p x z z z z z z z z z z z z z z z z c c c x i o R.R.R.R.R.R.R.R.R.R.R.R.",
"R.R.R.R.R.R.R.R.R.R.R.R.S   x c z z z z z z z z z z z z z z z z z z z z x + R.R.R.R.R.R.R.R.R.R.R.R.",
"R.R.R.R.R.R.R.R.R.R.R.R.M @ x z z z z z z z z z z z z x z x z z z z z c x , R.R.R.R.R.R.R.R.R.R.R.R.",
"R.R.R.R.R.R.R.R.R.R.R.R.D X x c z z z z z x z z z z z z z z z z z z z c x @ R.R.R.R.R.R.R.R.R.R.R.R.",
"R.R.R.R.R.R.R.R.R.R.R.R.F   x c z z z c z z z z z z z z z z z z z z z x x @ R.R.R.R.R.R.R.R.R.R.R.R.",
"R.R.R.R.R.R.R.R.R.R.R.R.G   c c z z z z z z z z z z z z z z z z z z z z z X R.R.R.R.R.R.R.R.R.R.R.R.",
"R.R.R.R.R.R.R.R.R.R.R.R.F o Z z z z z z z z z z z z z z z z x z z z z z Z o R.R.R.R.R.R.R.R.R.R.R.R.",
"R.R.R.R.R.R.R.R.R.R.R.R.M < w.g z z z c z z z z x z z z z z z z z z z s p.y R.R.R.R.R.R.R.R.R.R.R.R.",
"R.R.R.R.R.R.R.R.R.R.R.G.f 5 x.A z z z z z z z z z z z z z z z z z z z H I.y R.R.R.R.R.R.R.R.R.R.R.R.",
"R.R.R.R.R.R.R.R.R.R.j.Z.f 2 b.u.A z z s z z z z z z z z z z z g z z 2.n.Y.y R.R.R.R.R.R.R.R.R.R.R.R.",
"R.R.R.R.R.R.R.R.D.j.j.A.f 2 c.s.r.H Z c z z z z z z z z z z c z Z e.x.N.U.y N R.R.R.R.R.R.R.R.R.R.R.",
"R.R.R.R.R.R.R.R.j.j.k.A.f 2 c.p.r.w.P A Z Z x z z z x c x Z A P u.f.c.B.U.7 N R.R.R.R.R.R.R.R.R.R.R.",
"R.R.R.R.R.R.R.A.j.j.k.S.f 2 c.p.r.2.2.0.K K H A A A A H P e.e.y.f.s.x.B.U.y R.R.R.R.R.R.R.R.R.R.R.R.",
"R.R.R.R.R.R.P.l.j.k.k.S.f 5 c.s.y.P 2.P H J J K H J P P e.r.e.y.s.s.x.B.Y.y R.R.R.R.R.R.R.R.R.R.R.R.",
"R.R.R.R.R.R.L.j.j.k.k.S.g = h.a.r.0.w.J H K H H H J P J P r.e.r.s.s.x.M.F.q R.R.R.R.R.R.R.R.R.R.R.R.",
"R.R.R.R.R.R.K.j.j.k.k.S.l $ :.u.i.w.P L H J H H A J P J P e.e.y.s.d.v.b.5.8 R.R.R.R.R.R.R.R.R.R.R.R.",
"R.R.R.R.R.R.R.l.j.k.k.S.k $ [ &.1.w.e.J H H H H H J J J 2.e.e.y.d.d.g.4...9 R.R.R.R.R.R.R.R.R.R.R.R.",
"R.R.R.R.R.R.R.A.j.j.k.S.k $ [ ` ( ;.P 0.L L K K H L P L 0.t.t.i.s.<.o.| ..9 R.R.R.R.R.R.R.R.R.R.R.R.",
"R.R.R.R.R.R.R.L.j.j.k.A.k $ [ _ ` Q O.V A H K K H L 0.L 0.e.2.,.%._ [ | X.9 R.R.R.R.R.R.R.R.R.R.R.R.",
"R.R.R.R.R.R.R.R.Z.j.j.A.z & $.) ! Q Q E W O.b m m m ;.B ;.#.( ^ _ ) ' { *.0 R.R.R.R.R.R.R.R.R.R.R.R.",
"R.R.R.R.R.R.R.R.P.l.j.A.f 6 8.] ` Q ~ T I R Y R Y R E R ~ ^ ! ! _ _ '  .C.u R.R.R.R.R.R.R.R.R.R.R.R.",
"R.R.R.R.R.R.R.R.R.D.j.A.e 3 m.<.( Q Q T T T I I I U T U Q ^ ^ ` _ ) $.9.Y.u R.R.R.R.R.R.R.R.R.R.R.R.",
"R.R.R.R.R.R.R.R.R.R.n.Z.e w v.d.1.@.~ T T U I Y T I Q T Q ! Q ^ ] &.h.M.Y.7 R.R.R.R.R.R.R.R.R.R.R.R.",
"R.R.R.R.R.R.R.R.R.R.J.Z.f 2 c.s.t.w.>.+./ R T Y R E T T E ^ ( -.7.s.x.B.U.7 R.R.R.R.R.R.R.R.R.R.R.R.",
"R.R.R.R.R.R.R.R.R.R.R.H.e 5 x.s.y.w.w.J H V v t t +.+.+.=.,.6.y.a.d.x.n.U.i R.R.R.R.R.R.R.R.R.R.R.R.",
"R.R.R.R.R.R.R.R.R.R.R.J.e a x.u.r.0.0.P L L H H H H L K P t.t.y.p.s.x.B.U.x R.R.R.R.R.R.R.R.R.R.R.R.",
"R.R.R.R.R.R.R.R.R.R.R.R.h u b.u.r.0.P P H K H H H K 0.0.w.r.e.y.s.s.x.B.U.z n R.R.R.R.R.R.R.R.R.R.R.",
"R.R.R.R.R.R.R.R.R.R.R.R.S - f.s.r.2.P J H K H H H K J J P e.e.r.s.s.x.B.V.1 C R.R.R.R.R.R.R.R.R.R.R.",
"R.R.R.R.R.R.R.R.R.R.R.R.k.; k j.y.P e.J H K H H H H J J P r.e.r.s.s.c.I.A * R.R.R.R.R.R.R.R.R.R.R.R.",
"R.R.R.R.R.R.R.R.R.R.R.R.R.N   L s.e.P J K K H H H J P J P e.r.y.s.f.b.b.< R.R.R.R.R.R.R.R.R.R.R.R.R.",
"R.R.R.R.R.R.R.R.R.R.R.R.R.R.d + c e.y.J K J H H H J P J P r.e.y.f.f.r.a j R.R.R.R.R.R.R.R.R.R.R.R.R.",
"R.R.R.R.R.R.R.R.R.R.R.R.R.R.R.M . 2 A P 2.P L K H J P P e.y.y.p.e.7 ; 2.R.R.R.R.R.R.R.R.R.R.R.R.R.R.",
"R.R.R.R.R.R.R.R.R.R.R.R.R.R.R.R.R.> # i x A H K K L P J P J A s O : R.R.R.R.R.R.R.R.R.R.R.R.R.R.R.R.",
"R.R.R.R.R.R.R.R.R.R.R.R.R.R.R.R.R.R.D > o , i s i a s s i 1 O : R.R.R.R.R.R.R.R.R.R.R.R.R.R.R.R.R.R.",
"R.R.R.R.R.R.R.R.R.R.R.R.R.R.R.R.R.R.R.R.R.M r 3 w w w 3 e N R.R.R.R.R.R.R.R.R.R.R.R.R.R.R.R.R.R.R.R.",
"R.R.R.R.R.R.R.R.R.R.R.R.R.R.R.R.R.R.R.R.R.R.R.R.R.R.R.R.R.R.R.R.R.R.R.R.R.R.R.R.R.R.R.R.R.R.R.R.R.R.",
"R.R.R.R.R.R.R.R.R.R.R.R.R.R.R.R.R.R.R.R.R.R.R.R.R.R.R.R.R.R.R.R.R.R.R.R.R.R.R.R.R.R.R.R.R.R.R.R.R.R.",
"R.R.R.R.R.R.R.R.R.R.R.R.R.R.R.R.R.R.R.R.R.R.R.R.R.R.R.R.R.R.R.R.R.R.R.R.R.R.R.R.R.R.R.R.R.R.R.R.R.R.",
"R.R.R.R.R.R.R.R.R.R.R.R.R.R.R.R.R.R.R.R.R.R.R.R.R.R.R.R.R.R.R.R.R.R.R.R.R.R.R.R.R.R.R.R.R.R.R.R.R.R."
};
